<svg width="97" height="98" viewBox="0 0 97 98" fill="none" xmlns="http://www.w3.org/2000/svg">
<path d="M24.8358 75.3682C24.8358 75.3682 45.7027 98.0648 62.8487 97.9999C69.6964 97.9736 84.0952 92.5251 90.3655 84.4139C96.6363 76.3032 76.5618 65.7856 71.0535 65.0766C67.1792 64.6135 64.3225 67.7924 61.5882 70.8342C61.2 71.2661 60.8143 71.6952 60.4286 72.1108C59.2811 73.3469 58.1329 75.463 56.9164 76.1742C49.6316 79.2831 34.7967 65.1033 34.7967 65.1033C34.7967 65.1033 34.7248 65.0302 34.5941 64.8928L34.3961 64.678C34.3961 64.678 21.9569 50.0816 25.5 43C26.3038 41.7998 28.5804 40.6329 29.9231 39.5358C30.33 39.2033 30.7478 38.8714 31.168 38.5375C34.3706 35.9926 37.7175 33.3337 37.488 29.4397C37.1119 23.9013 27.8189 3.23902 19.3409 9.00628C10.8635 14.7741 4.55474 28.8119 4.11582 35.6424C3.01723 52.7451 24.8358 75.3682 24.8358 75.3682Z" fill="#5381F6"/>
<path d="M29.893 39.5537C28.6384 40.5925 27.4253 41.8248 26.6659 42.9601C23.1115 50.0728 36.3696 63.6215 36.3696 63.6215L36.5679 63.8368L36.7709 64.048C36.7709 64.048 49.6466 78.2902 56.9552 75.1682C58.1333 74.4779 59.2593 73.3739 60.3711 72.1832C59.2887 74.5427 57.9703 81.4289 54.0963 81.8645C50.2223 82.3001 40.7821 77.0144 32.2302 67.9236C23.6782 58.8329 18.2887 49.3137 18.9566 45.47C19.6245 41.6264 27.4743 40.4928 29.893 39.5537Z" fill="#D7DEEF"/>
<path d="M33.5182 1.33743C33.6989 0.962696 34.1491 0.805377 34.5239 0.986053C34.8986 1.16673 35.0559 1.61698 34.8753 1.99171L31.931 8.09839C31.7503 8.47312 31.3001 8.63044 30.9253 8.44977C30.5506 8.26909 30.3933 7.81884 30.5739 7.44411L33.5182 1.33743Z" fill="#FB5A80"/>
<path d="M42.1653 6.20166C41.8725 5.90611 41.3956 5.90386 41.1 6.19664L36.2837 10.9677C35.9881 11.2605 35.9859 11.7374 36.2787 12.033C36.5714 12.3285 37.0484 12.3308 37.3439 12.038L42.1603 7.26693C42.4558 6.97415 42.4581 6.49721 42.1653 6.20166Z" fill="#FB5A80"/>
<path d="M47.3158 14.89C47.4346 15.2887 47.2077 15.7082 46.809 15.8269L40.3118 17.7625C39.9131 17.8813 39.4936 17.6544 39.3748 17.2557C39.256 16.857 39.483 16.4375 39.8817 16.3187L46.3789 14.3831C46.7776 14.2643 47.1971 14.4913 47.3158 14.89Z" fill="#FB5A80"/>
<path d="M48.2238 24.0967C48.2024 24.5122 47.8483 24.8317 47.4329 24.8104L40.6624 24.4626C40.2469 24.4412 39.9274 24.0871 39.9488 23.6717C39.9701 23.2562 40.3242 22.9367 40.7397 22.958L47.5102 23.3058C47.9256 23.3271 48.2451 23.6812 48.2238 24.0967Z" fill="#FB5A80"/>
</svg>
