<svg width="152" height="152" viewBox="0 0 152 152" fill="none" xmlns="http://www.w3.org/2000/svg">
<path fill-rule="evenodd" clip-rule="evenodd" d="M62.3778 4.56339L2.8712 50.7318C1.97651 51.426 1.25273 52.3151 0.755111 53.331C0.257496 54.347 -0.000782839 55.463 1.78235e-06 56.5937V134.58C1.78235e-06 136.548 0.783681 138.435 2.17864 139.827C3.57359 141.218 5.46556 142 7.43833 142H126.452C128.424 142 130.316 141.218 131.711 139.827C133.106 138.435 133.89 136.548 133.89 134.58V56.5937C133.891 55.463 133.632 54.347 133.135 53.331C132.637 52.3151 131.913 51.426 131.019 50.7318L71.512 4.56339C70.2063 3.55013 68.5992 3 66.9449 3C65.2906 3 63.6835 3.55013 62.3778 4.56339ZM26 65.6949V116H107.89V65.6949L66.9449 33.9277L26 65.6949Z" fill="url(#paint0_linear)"/>
<path d="M98.9417 69.905C104.522 68.3747 110.451 67 114 67C117.549 67 123.478 68.3747 129.058 69.905C134.767 71.4612 140.522 73.3028 143.906 74.4181C145.321 74.8894 146.575 75.7537 147.525 76.9118C148.474 78.0698 149.081 79.4746 149.275 80.9648C152.34 104.189 145.227 121.401 136.598 132.788C132.938 137.659 128.575 141.948 123.653 145.513C121.951 146.746 120.148 147.831 118.263 148.755C116.823 149.44 115.275 150 114 150C112.725 150 111.182 149.44 109.737 148.755C107.852 147.831 106.049 146.746 104.347 145.513C99.4253 141.948 95.0619 137.659 91.4023 132.788C82.7726 121.401 75.66 104.189 78.7252 80.9648C78.919 79.4746 79.5256 78.0698 80.4754 76.9118C81.4251 75.7537 82.6795 74.8894 84.0943 74.4181C89.0067 72.7934 93.9573 71.2886 98.9417 69.905Z" fill="url(#paint1_linear)"/>
<path fill-rule="evenodd" clip-rule="evenodd" d="M129.877 68.045C123.982 66.4409 117.718 65 113.969 65C110.22 65 103.956 66.4409 98.0608 68.045C92.7952 69.4953 87.5653 71.0726 82.3757 72.7756C80.881 73.2696 79.5559 74.1756 78.5525 75.3894C77.5492 76.6033 76.9083 78.0758 76.7036 79.6377C73.4655 103.981 80.9794 122.023 90.096 133.958C93.9621 139.064 98.5717 143.56 103.771 147.297C105.569 148.59 107.474 149.726 109.465 150.695C110.991 151.413 112.621 152 113.969 152C115.316 152 116.951 151.413 118.473 150.695C120.464 149.726 122.369 148.589 124.167 147.297C129.366 143.56 133.976 139.064 137.841 133.958C146.958 122.023 154.472 103.981 151.234 79.6377C151.029 78.0758 150.388 76.6033 149.385 75.3894C148.382 74.1756 147.056 73.2696 145.562 72.7756C141.987 71.6066 135.907 69.6762 129.877 68.045ZM135.847 86.4674C132.81 85.5188 129.227 84.4443 125.699 83.4899L125.687 83.4868L125.676 83.4836C122.904 82.7295 120.237 82.067 117.945 81.6032C116.805 81.3726 115.856 81.2112 115.102 81.1111C114.342 81.0103 113.994 81.0007 113.97 81L113.969 81L113.967 81C113.943 81.0007 113.595 81.0103 112.836 81.1111C112.082 81.2112 111.132 81.3726 109.992 81.6032C107.707 82.0657 105.049 82.7256 102.286 83.4771C98.871 84.4179 95.4721 85.4148 92.0902 86.4673C90.9392 103.656 96.5237 116.015 102.811 124.246L102.831 124.273L102.852 124.3C105.752 128.129 109.209 131.502 113.108 134.304L113.113 134.307C113.394 134.509 113.679 134.705 113.969 134.894C114.258 134.705 114.544 134.509 114.825 134.307L114.83 134.303C118.729 131.502 122.186 128.13 125.086 124.3L125.106 124.273L125.126 124.246C131.414 116.015 136.998 103.656 135.847 86.4674Z" fill="url(#paint2_linear)"/>
<defs>
<linearGradient id="paint0_linear" x1="63.8619" y1="142" x2="63.8619" y2="3" gradientUnits="userSpaceOnUse">
<stop stop-color="#3C70F4"/>
<stop offset="1" stop-color="#638DF6"/>
</linearGradient>
<linearGradient id="paint1_linear" x1="114" y1="67" x2="114" y2="150" gradientUnits="userSpaceOnUse">
<stop stop-color="#FB5A80"/>
<stop offset="1" stop-color="#F23965"/>
</linearGradient>
<linearGradient id="paint2_linear" x1="87.0766" y1="77.7409" x2="148.044" y2="131.043" gradientUnits="userSpaceOnUse">
<stop stop-color="#EDF0F8"/>
<stop offset="1" stop-color="#D7DEEF"/>
</linearGradient>
</defs>
</svg>
