<svg fill="none" xmlns="http://www.w3.org/2000/svg" viewBox="0 0 100 100"><path fill-rule="evenodd" clip-rule="evenodd" d="M40.335.958c-1.873.374-1.6 3.418.21 4.032a28.525 28.525 0 0110.965 6.818c11.079 11.026 11.06 29.066.012 40.25-9.413 9.53-9.275 24.723.012 34.287 9.246 9.52 24.408 9.54 33.844-.013 19.496-19.737 19.496-51.792 0-71.529C73.149 2.423 56.133-2.192 40.335.958z" fill="url(#paint0_linear)"/><path fill-rule="evenodd" clip-rule="evenodd" d="M59.665 99.042c1.872-.374 1.6-3.418-.21-4.032a28.526 28.526 0 01-10.965-6.818c-11.079-11.026-11.06-29.066-.012-40.25 9.412-9.53 9.275-24.723-.012-34.287-9.246-9.52-24.408-9.54-33.844.013-19.496 19.737-19.496 51.792 0 71.529 12.229 12.38 29.245 16.995 45.043 13.845z" fill="url(#paint1_linear)"/><path d="M68.935 79.29c5.392 0 9.763-4.504 9.763-10.06 0-5.555-4.37-10.058-9.763-10.058-5.392 0-9.763 4.503-9.763 10.059 0 5.555 4.37 10.059 9.763 10.059z" fill="url(#paint2_linear)"/><path d="M31.657 42.012c5.392 0 9.763-4.504 9.763-10.06 0-5.555-4.371-10.059-9.763-10.059-5.392 0-9.764 4.504-9.764 10.06 0 5.555 4.372 10.059 9.764 10.059z" fill="#F5F5F5"/><defs><linearGradient id="paint0_linear" x1="68.123" y1="93.491" x2="68.123" y2="0" gradientUnits="userSpaceOnUse"><stop stop-color="#3C70F4"/><stop offset="1" stop-color="#638DF6"/></linearGradient><linearGradient id="paint1_linear" x1="30.473" y1="6.509" x2="30.473" y2="100" gradientUnits="userSpaceOnUse"><stop stop-color="#FB5A80"/><stop offset="1" stop-color="#F23965"/></linearGradient><linearGradient id="paint2_linear" x1="62.031" y1="62.118" x2="76.251" y2="75.919" gradientUnits="userSpaceOnUse"><stop stop-color="#EDF0F8"/><stop offset="1" stop-color="#D7DEEF"/></linearGradient></defs></svg>