<svg fill="none" xmlns="http://www.w3.org/2000/svg" viewBox="0 0 100 107"><path d="M81.94 54.757s3.347 2.376 6.378 4.548c3.02 2.164 4.613 6.321 4.062 11.962-1.103 11.3-10.39 24.276-20.742 28.982-5.168 2.348-9.624 2.192-12.654.042a3315.91 3315.91 0 01-6.378-4.548s-.75-7.568-.565-9.468c1.103-11.301 19.546-26.813 29.899-31.518z" fill="url(#paint0_linear)"/><path d="M69.307 54.814c10.353-4.705 17.852.642 16.749 11.943-1.103 11.301-10.39 24.277-20.742 28.982-10.353 4.705-17.852-.642-16.75-11.943 1.104-11.3 10.39-24.276 20.743-28.982z" fill="url(#paint1_linear)"/><path d="M67.804 77.623c3.706-1.685 6.24-4.856 6.554-8.219.328-3.215-1.687-4.594-5.471-2.874l-5.826 2.647a.847.847 0 00-.446.623l-.709 7.268a.847.847 0 01-.446.623l-1.46.664a.847.847 0 00-.446.623l-.201 2.065c-.024.243.137.358.36.257l1.46-.663c.222-.102.383.013.36.256l-.024.24a.847.847 0 01-.446.624l-1.46.663a.847.847 0 00-.445.623l-.202 2.065c-.024.243.138.358.36.257l1.46-.663c.222-.101.384.014.36.257l-.131 1.343c-.024.243.137.358.36.257l2.542-1.155a.847.847 0 00.446-.623l.13-1.344a.847.847 0 01.447-.623l2.674-1.215a.847.847 0 00.446-.624l.201-2.065c.024-.243-.137-.358-.36-.256l-2.674 1.215c-.222.101-.384-.014-.36-.257l.024-.24a.847.847 0 01.446-.623l2.477-1.126zm-2.19-1.82c-.223.102-.384-.013-.36-.256l.418-4.28a.847.847 0 01.446-.624l2.477-1.126c1.783-.81 2.54-.035 2.387 1.462-.141 1.524-1.092 2.881-2.984 3.74l-2.384 1.085z" fill="url(#paint2_linear)"/><path d="M63.738 62.309s-2.706 3.786-5.18 7.216c-2.466 3.418-7.194 5.215-13.603 4.584-12.84-1.265-27.565-11.801-32.891-23.532-2.658-5.856-2.472-10.902-.022-14.331 1.633-2.286 5.18-7.217 5.18-7.217s8.603-.839 10.761-.626c12.84 1.265 30.43 22.174 35.755 33.906z" fill="url(#paint3_linear)"/><path d="M63.699 48.002c5.325 11.731-.766 20.216-13.606 18.95-12.84-1.264-27.566-11.8-32.892-23.531-5.325-11.732.766-20.216 13.606-18.951 12.84 1.265 27.566 11.8 32.892 23.532z" fill="url(#paint4_linear)"/><path d="M45.516 50.03c5.644.577 7.955-1.755 5.963-6.053-1.85-4.088-6.68-7.5-12.444-8.088l-8.727-.891c-.419-.043-.617.232-.441.615l4.125 9.002c.175.383-.022.658-.442.615l-1.932-.197c-.42-.043-.617.232-.442.615l1.086 2.37c.175.382.657.727 1.076.77l1.933.197c.42.043.9.387 1.076.77l.02.043c.175.383-.022.658-.441.615l-1.933-.197c-.42-.043-.617.232-.442.615l1.086 2.37c.175.382.657.727 1.076.77l1.933.197c.42.043.901.387 1.076.77l.665 1.45c.175.382.657.727 1.076.77l3.58.365c.42.043.618-.232.443-.615l-.665-1.45c-.175-.382.023-.657.442-.615l3.782.386c.42.043.617-.232.442-.615l-1.086-2.37c-.175-.382-.657-.726-1.076-.77l-3.783-.385c-.42-.043-.9-.388-1.076-.77l-.02-.044c-.175-.382.022-.657.442-.615l3.628.37zm-5.349-4.124c-.42-.043-.901-.388-1.076-.77l-2.38-5.194c-.175-.383.022-.658.441-.615l3.629.37c2.715.278 4.727 1.906 5.588 3.81.905 1.948.166 3.049-2.716 2.755l-3.486-.356z" fill="url(#paint5_linear)"/><path d="M81.795 9.5s1.243 2.686 2.361 5.131c1.114 2.437.62 5.61-1.75 8.946C77.66 30.26 67.19 35.061 59.019 34.302c-4.078-.38-6.812-2.072-7.938-4.504-.75-1.621-2.361-5.131-2.361-5.131s2.246-5.009 3.044-6.132C56.509 11.852 73.624 8.74 81.795 9.5z" fill="url(#paint6_linear)"/><path d="M73.865 5.013c8.17.76 10.947 6.793 6.2 13.475-4.746 6.683-15.217 11.485-23.388 10.725-8.17-.76-10.947-6.793-6.2-13.475C55.221 9.055 65.693 4.253 73.864 5.013z" fill="url(#paint7_linear)"/><path d="M64.738 18.76c2.925.271 5.65-.808 7.053-2.802 1.36-1.896.592-3.48-2.394-3.758l-4.598-.428a.613.613 0 00-.503.23L61.244 16.3a.612.612 0 01-.503.231l-1.152-.107a.612.612 0 00-.503.23l-.867 1.222c-.102.143-.042.273.133.29l1.152.107c.176.016.236.146.133.29l-.1.141a.612.612 0 01-.504.231l-1.151-.107a.612.612 0 00-.503.23l-.867 1.222c-.102.143-.043.273.133.29l1.152.107c.175.016.235.146.133.29l-.564.794c-.102.144-.043.273.133.29l2.006.186c.176.017.4-.087.503-.23l.564-.795a.612.612 0 01.503-.23l2.11.196c.176.016.401-.087.504-.231l.867-1.221c.102-.144.042-.274-.133-.29l-2.11-.196c-.177-.016-.236-.146-.134-.29l.1-.142a.612.612 0 01.504-.23l1.955.181zm-.719-1.924c-.175-.016-.235-.146-.133-.29l1.798-2.531a.612.612 0 01.503-.23l1.955.181c1.407.131 1.604.888.97 1.77-.635.904-1.718 1.413-3.21 1.275l-1.883-.175z" fill="url(#paint8_linear)"/><defs><linearGradient id="paint0_linear" x1="54.889" y1="88.306" x2="90.379" y2="91.769" gradientUnits="userSpaceOnUse"><stop stop-color="#043ED2"/><stop offset="1" stop-color="#3463DB"/></linearGradient><linearGradient id="paint1_linear" x1="48.565" y1="83.796" x2="84.055" y2="87.26" gradientUnits="userSpaceOnUse"><stop stop-color="#EDF0F8"/><stop offset="1" stop-color="#D7DEEF"/></linearGradient><linearGradient id="paint2_linear" x1="69.631" y1="78.924" x2="60.599" y2="72.46" gradientUnits="userSpaceOnUse"><stop stop-color="#3C70F4"/><stop offset="1" stop-color="#638DF6"/></linearGradient><linearGradient id="paint3_linear" x1="25.67" y1="31.626" x2="21.709" y2="71.818" gradientUnits="userSpaceOnUse"><stop stop-color="#043ED2"/><stop offset="1" stop-color="#3463DB"/></linearGradient><linearGradient id="paint4_linear" x1="30.807" y1="24.47" x2="26.847" y2="64.662" gradientUnits="userSpaceOnUse"><stop stop-color="#EDF0F8"/><stop offset="1" stop-color="#D7DEEF"/></linearGradient><linearGradient id="paint5_linear" x1="33.208" y1="52.371" x2="44.296" y2="36.872" gradientUnits="userSpaceOnUse"><stop stop-color="#3C70F4"/><stop offset="1" stop-color="#638DF6"/></linearGradient><linearGradient id="paint6_linear" x1="52.818" y1="20.826" x2="73.784" y2="35.717" gradientUnits="userSpaceOnUse"><stop stop-color="#043ED2"/><stop offset="1" stop-color="#3463DB"/></linearGradient><linearGradient id="paint7_linear" x1="50.476" y1="15.738" x2="71.443" y2="30.629" gradientUnits="userSpaceOnUse"><stop stop-color="#EDF0F8"/><stop offset="1" stop-color="#D7DEEF"/></linearGradient><linearGradient id="paint8_linear" x1="65.415" y1="20.228" x2="62.076" y2="12.948" gradientUnits="userSpaceOnUse"><stop stop-color="#3C70F4"/><stop offset="1" stop-color="#638DF6"/></linearGradient></defs></svg>