<svg fill="none" xmlns="http://www.w3.org/2000/svg" viewBox="0 0 100 100"><path d="M78.667 67.556c0 4.418-3.154 8-7.045 8H7.045c-3.891 0-7.045-3.582-7.045-8V32.001c0-4.419 3.154-8 7.045-8h64.577c3.89 0 7.045 3.581 7.045 8v35.555z" fill="url(#paint0_linear)"/><path fill="url(#paint1_linear)" d="M0 37.333h78.667v10.222H0z"/><rect x="7.555" y="56.886" width="26.665" height="3.111" rx="1.555" fill="#90AFFD"/><rect x="7.555" y="62.663" width="17.777" height="3.111" rx="1.555" fill="#90AFFD"/><path fill-rule="evenodd" clip-rule="evenodd" d="M57.637 95.816c25.304-2.255 43.989-24.595 41.734-49.898C97.117 20.615 74.777 1.93 49.473 4.184A45.796 45.796 0 0022.57 16.002 46.276 46.276 0 0015.61 24h15.354A34.259 34.259 0 0148.043 16c.809-.13 1.627-.233 2.456-.306a34.406 34.406 0 0110.994.781c.55.13.82.741.565 1.244L32.504 75.895a.868.868 0 01-1.338.278 45.271 45.271 0 01-.127-.11l-.075-.065a33.325 33.325 0 01-.334-.294H15.4c.066.099.133.197.2.294 9.096 13.253 24.886 21.346 42.037 19.818zm-1.025-11.51c18.947-1.688 32.938-18.416 31.25-37.362-.827-9.284-5.265-17.377-11.804-23.02a.868.868 0 00-1.34.276L45.193 82.314a.868.868 0 00.568 1.245 34.411 34.411 0 0010.85.747z" fill="url(#paint2_linear)"/><defs><linearGradient id="paint0_linear" x1="39.333" y1="75.556" x2="39.333" y2="24" gradientUnits="userSpaceOnUse"><stop stop-color="#D7DEEF"/><stop offset="1" stop-color="#EDF0F8"/></linearGradient><linearGradient id="paint1_linear" x1="78.667" y1="47.556" x2="-.083" y2="38.014" gradientUnits="userSpaceOnUse"><stop stop-color="#3C70F4"/><stop offset="1" stop-color="#638DF6"/></linearGradient><linearGradient id="paint2_linear" x1="57.478" y1="4" x2="57.478" y2="96" gradientUnits="userSpaceOnUse"><stop stop-color="#FB5A80"/><stop offset="1" stop-color="#F23965"/></linearGradient></defs></svg>