<svg fill="none" xmlns="http://www.w3.org/2000/svg" viewBox="0 0 100 100"><path d="M43.65 9.22a7.496 7.496 0 012.759-3.053 7.465 7.465 0 017.901 0 7.496 7.496 0 012.76 3.054L67.467 30.36l23.248 3.376a7.472 7.472 0 013.748 1.69 7.523 7.523 0 01.395 11.112l-16.824 16.44L82.01 86.2a7.523 7.523 0 01-.446 4.091 7.5 7.5 0 01-2.53 3.24 7.468 7.468 0 01-7.872.576L50.355 83.143 29.557 94.107a7.463 7.463 0 01-7.87-.576 7.5 7.5 0 01-2.531-3.24 7.523 7.523 0 01-.447-4.09l3.965-23.222-16.823-16.45a7.524 7.524 0 01-1.886-7.69 7.504 7.504 0 012.293-3.415 7.47 7.47 0 013.745-1.688l23.248-3.385 10.39-21.13h.009z" fill="url(#paint0_linear)"/><path d="M18.486 43.668a3.471 3.471 0 011.273-1.416 3.432 3.432 0 013.647 0c.547.343.988.833 1.274 1.416l4.799 9.809 10.73 1.567a3.44 3.44 0 011.73.783c.492.42.859.969 1.058 1.587a3.509 3.509 0 01-.876 3.57l-7.765 7.628 1.834 10.775c.109.64.037 1.297-.205 1.898a3.477 3.477 0 01-1.168 1.503 3.437 3.437 0 01-3.633.267l-9.604-5.087-9.598 5.087a3.429 3.429 0 01-3.633-.267 3.477 3.477 0 01-1.168-1.503 3.508 3.508 0 01-.206-1.898l1.83-10.775L1.04 60.98a3.509 3.509 0 01-.87-3.568c.199-.617.566-1.166 1.058-1.585a3.44 3.44 0 011.729-.782l10.73-1.572 4.795-9.804h.004z" fill="url(#paint1_linear)"/><path d="M79.024 57.555c.209-.432.532-.796.934-1.05a2.496 2.496 0 012.674 0c.401.254.725.617.934 1.05l3.52 7.272 7.868 1.161c.468.07.907.27 1.269.581.36.31.63.718.776 1.177.145.458.163.949.05 1.416a2.594 2.594 0 01-.693 1.23l-5.694 5.656 1.345 7.988c.08.474.027.961-.15 1.407A2.574 2.574 0 0191 86.557a2.492 2.492 0 01-2.664.198l-7.043-3.771-7.039 3.771a2.492 2.492 0 01-2.664-.198 2.574 2.574 0 01-.856-1.114 2.627 2.627 0 01-.152-1.407l1.342-7.989-5.694-5.658a2.592 2.592 0 01-.69-1.23 2.628 2.628 0 01.052-1.416c.146-.457.415-.864.776-1.175.361-.31.8-.51 1.268-.58l7.868-1.165 3.517-7.268h.003z" fill="#90AFFD"/><defs><linearGradient id="paint0_linear" x1="48.206" y1="94.964" x2="48.206" y2="5.036" gradientUnits="userSpaceOnUse"><stop stop-color="#3C70F4"/><stop offset="1" stop-color="#638DF6"/></linearGradient><linearGradient id="paint1_linear" x1="21.583" y1="41.727" x2="21.583" y2="83.453" gradientUnits="userSpaceOnUse"><stop stop-color="#FB5A80"/><stop offset="1" stop-color="#F23965"/></linearGradient></defs></svg>