<svg viewBox="0 0 31 30" fill="none" xmlns="http://www.w3.org/2000/svg"><g clip-path="url(#clip0)"><path d="M29.9 20.483L19.436 3.75A4.616 4.616 0 0017.74 2.22a4.818 4.818 0 00-2.248-.554c-.786 0-1.559.19-2.248.554-.689.364-1.272.89-1.695 1.528L1.083 20.483a3.842 3.842 0 00-.582 1.965 3.835 3.835 0 00.514 1.982 4.519 4.519 0 001.692 1.641 4.731 4.731 0 002.32.595h20.93a4.732 4.732 0 002.31-.572 4.524 4.524 0 001.702-1.611c.36-.613.542-1.306.53-2.01a3.842 3.842 0 00-.598-1.99zm-14.408.921c-.27 0-.534-.077-.758-.222-.224-.144-.4-.35-.503-.59a1.273 1.273 0 01-.077-.76c.052-.256.182-.49.373-.674.191-.184.434-.31.699-.36.264-.05.539-.025.788.075.25.1.463.268.613.485a1.282 1.282 0 01-.17 1.66 1.39 1.39 0 01-.965.386zm1.364-5.262c0 .349-.143.683-.4.93a1.39 1.39 0 01-.964.385 1.39 1.39 0 01-.965-.385 1.292 1.292 0 01-.4-.93v-5.263c0-.349.144-.683.4-.93a1.39 1.39 0 01.965-.385c.362 0 .709.138.965.385s.4.581.4.93v5.263z" fill="#FB5A80"/></g><defs><clipPath id="clip0"><path fill="#fff" transform="translate(.5)" d="M0 0h30v30H0z"/></clipPath></defs></svg>