<svg fill="none" xmlns="http://www.w3.org/2000/svg" viewBox="0 0 33 33"><path d="M0 7.765A7.765 7.765 0 017.765 0h17.47A7.765 7.765 0 0133 7.765v17.47A7.765 7.765 0 0125.235 33H7.765A7.765 7.765 0 010 25.235V7.765z" fill="#3C70F4"/><path d="M0 7.765A7.765 7.765 0 017.765 0h17.47A7.765 7.765 0 0133 7.765v17.47A7.765 7.765 0 0125.235 33H7.765A7.765 7.765 0 010 25.235V7.765z" fill="url(#paint01_linear)" fill-opacity=".2"/><path d="M0 7.894c0 3.442 2.718 4.82 2.718 8.537C2.718 20.15 0 21.663 0 25.106V7.894z" fill="#4EBFFF"/><path d="M0 7.894c0 3.442 2.718 4.82 2.718 8.537C2.718 20.15 0 21.663 0 25.106V7.894z" fill="url(#paint02_linear)" fill-opacity=".2"/><path d="M33 7.894c0 3.442-2.718 4.82-2.718 8.537 0 3.718 2.718 5.232 2.718 8.675V7.894z" fill="#4EBFFF"/><path d="M33 7.894c0 3.442-2.718 4.82-2.718 8.537 0 3.718 2.718 5.232 2.718 8.675V7.894z" fill="url(#paint03_linear)" fill-opacity=".2"/><path d="M8.044 19.82c.199-.2.522-.2.72 0l4.416 4.416a.51.51 0 01-.72.72l-4.416-4.415a.51.51 0 010-.721z" fill="#80D1FF"/><path d="M8.044 19.82c.199-.2.522-.2.72 0l4.416 4.416a.51.51 0 01-.72.72l-4.416-4.415a.51.51 0 010-.721z" fill="url(#paint04_linear)" fill-opacity=".2"/><path d="M8.044 24.957a.51.51 0 010-.721l4.416-4.416a.51.51 0 11.72.72l-4.415 4.417c-.2.199-.522.199-.721 0z" fill="#80D1FF"/><path d="M8.044 24.957a.51.51 0 010-.721l4.416-4.416a.51.51 0 11.72.72l-4.415 4.417c-.2.199-.522.199-.721 0z" fill="url(#paint05_linear)" fill-opacity=".2"/><path d="M19.671 22.388c0-.286.232-.517.518-.517h4.4a.518.518 0 110 1.035h-4.4a.518.518 0 01-.518-.518z" fill="#80D1FF"/><path d="M19.671 22.388c0-.286.232-.517.518-.517h4.4a.518.518 0 110 1.035h-4.4a.518.518 0 01-.518-.518z" fill="url(#paint5_linear)" fill-opacity=".2"/><path d="M7.895 9.188c0-.714.579-1.294 1.294-1.294h14.623c.715 0 1.294.58 1.294 1.294v2.33c0 .714-.58 1.294-1.294 1.294H9.19c-.715 0-1.294-.58-1.294-1.294v-2.33z" fill="#80D1FF"/><path d="M7.895 9.188c0-.714.579-1.294 1.294-1.294h14.623c.715 0 1.294.58 1.294 1.294v2.33c0 .714-.58 1.294-1.294 1.294H9.19c-.715 0-1.294-.58-1.294-1.294v-2.33z" fill="url(#paint6_linear)" fill-opacity=".2"/><defs><linearGradient id="paint01_linear" x1="15.74" y1="33" x2="15.74" y2="0" gradientUnits="userSpaceOnUse"><stop stop-color="#fff" stop-opacity="0"/><stop offset="1" stop-color="#fff"/></linearGradient><linearGradient id="paint02_linear" x1="31.704" y1="25.106" x2="31.704" y2="7.894" gradientUnits="userSpaceOnUse"><stop stop-color="#fff" stop-opacity="0"/><stop offset="1" stop-color="#fff"/></linearGradient><linearGradient id="paint03_linear" x1="31.704" y1="25.106" x2="31.704" y2="7.894" gradientUnits="userSpaceOnUse"><stop stop-color="#fff" stop-opacity="0"/><stop offset="1" stop-color="#fff"/></linearGradient><linearGradient id="paint04_linear" x1="22.264" y1="22.906" x2="22.264" y2="21.871" gradientUnits="userSpaceOnUse"><stop stop-color="#fff" stop-opacity="0"/><stop offset="1" stop-color="#fff"/></linearGradient><linearGradient id="paint05_linear" x1="22.264" y1="22.906" x2="22.264" y2="21.871" gradientUnits="userSpaceOnUse"><stop stop-color="#fff" stop-opacity="0"/><stop offset="1" stop-color="#fff"/></linearGradient><linearGradient id="paint5_linear" x1="22.264" y1="22.906" x2="22.264" y2="21.871" gradientUnits="userSpaceOnUse"><stop stop-color="#fff" stop-opacity="0"/><stop offset="1" stop-color="#fff"/></linearGradient><linearGradient id="paint6_linear" x1="16.104" y1="12.812" x2="16.104" y2="7.894" gradientUnits="userSpaceOnUse"><stop stop-color="#fff" stop-opacity="0"/><stop offset="1" stop-color="#fff"/></linearGradient></defs></svg>