<svg fill="none" xmlns="http://www.w3.org/2000/svg" viewBox="0 0 70 70"><path d="M55.981 7.037c.286-3.115 2.945-5.556 6.183-5.556s5.745 2.315 6.208 5.556l1.568 10.675c.492 3.353-2.11 6.362-5.5 6.362H33.532L31.031 7.037h24.95z" fill="#154AD0"/><path d="M55.981 7.037c.286-3.115 2.945-5.556 6.183-5.556s5.745 2.315 6.208 5.556l1.568 10.675c.492 3.353-2.11 6.362-5.5 6.362H33.532L31.031 7.037h24.95z" fill="url(#paint0_linear)" fill-opacity=".2"/><path d="M56.142 7.037l-5.79 56.675a5.558 5.558 0 01-5.532 4.992H7.445a5.557 5.557 0 01-5.53-6.12l5.7-55.547a6.115 6.115 0 016.09-5.556h48.552c-3.19 0-5.834 2.441-6.115 5.556z" fill="#fff"/><path d="M56.142 7.037l-5.79 56.675a5.558 5.558 0 01-5.532 4.992H7.445a5.557 5.557 0 01-5.53-6.12l5.7-55.547a6.115 6.115 0 016.09-5.556h48.552c-3.19 0-5.834 2.441-6.115 5.556z" fill="url(#paint1_linear)" fill-opacity=".24"/><path d="M3.169 14.707a2.132 2.132 0 012.122-1.93h37.947a2.131 2.131 0 110 4.263H5.291a2.131 2.131 0 01-2.122-2.333zM1.95 25.26a2.132 2.132 0 012.123-1.928H42.02a2.131 2.131 0 110 4.262H4.073a2.131 2.131 0 01-2.122-2.333zM.936 35.815a2.132 2.132 0 012.122-1.93h37.947a2.131 2.131 0 110 4.263H3.058a2.131 2.131 0 01-2.122-2.333z" fill="#90AFFD"/><circle cx="34.075" cy="51.481" fill="url(#paint2_linear)" r="6.852"/><defs><linearGradient id="paint0_linear" x1="49.618" y1="24.074" x2="49.618" y2="1.481" gradientUnits="userSpaceOnUse"><stop stop-color="#fff" stop-opacity="0"/><stop offset="1" stop-color="#fff"/></linearGradient><linearGradient id="paint1_linear" x1="32.071" y1="1.481" x2="32.071" y2="68.704" gradientUnits="userSpaceOnUse"><stop stop-color="#5673BC"/><stop offset="1" stop-color="#5673BC" stop-opacity=".44"/></linearGradient><linearGradient id="paint2_linear" x1="33.759" y1="58.333" x2="33.759" y2="44.63" gradientUnits="userSpaceOnUse"><stop stop-color="#3C70F4"/><stop offset="1" stop-color="#638DF6"/></linearGradient></defs></svg>