<svg viewBox="0 0 33 32" fill="none" xmlns="http://www.w3.org/2000/svg">
<path fill-rule="evenodd" clip-rule="evenodd" d="M9.43843 10.7042L5.40039 4.02056L10.0153 0.559378L10.0235 0.573028C10.5695 0.0350583 11.4467 -0.0117212 12.4359 0.559378L24.4258 7.48174C26.0812 8.43752 27.4233 10.762 27.4233 12.6735L27.4233 26.5182C27.4233 27.5957 26.9969 28.312 26.3284 28.5608L22.1294 31.71L17.6881 24.3588L12.4359 21.3265C10.7804 20.3707 9.43843 18.0462 9.43843 16.1347L9.43843 10.7042Z" fill="#154AD0"/>
<path fill-rule="evenodd" clip-rule="evenodd" d="M9.43843 10.7042L5.40039 4.02056L10.0153 0.559378L10.0235 0.573028C10.5695 0.0350583 11.4467 -0.0117212 12.4359 0.559378L24.4258 7.48174C26.0812 8.43752 27.4233 10.762 27.4233 12.6735L27.4233 26.5182C27.4233 27.5957 26.9969 28.312 26.3284 28.5608L22.1294 31.71L17.6881 24.3588L12.4359 21.3265C10.7804 20.3707 9.43843 18.0462 9.43843 16.1347L9.43843 10.7042Z" fill="url(#paint0_linear_4226:2583)" fill-opacity="0.2"/>
<rect x="0.216506" y="0.375" width="20.0714" height="20.0714" rx="2.75" transform="matrix(0.866025 0.5 -2.20305e-08 1 5.10127 2.17747)" fill="url(#paint1_linear_4226:2583)" stroke="#7EA3FF" stroke-width="0.5"/>
<path fill-rule="evenodd" clip-rule="evenodd" d="M21.4599 24.5198L21.4599 27.2339C21.4599 28.8239 20.3436 29.4684 18.9666 28.6734L8.99332 22.9153C7.6163 22.1203 6.5 20.1868 6.5 18.5968L6.5 13.0039L9.48074 11.2831C10.1299 10.9083 11.1823 11.5159 11.8315 12.6403L14.7991 17.7803L15.701 17.2595C16.3502 16.8847 17.4026 17.4924 18.0518 18.6167L21.4599 24.5198Z" fill="url(#paint2_linear_4226:2583)"/>
<ellipse rx="1.14286" ry="1.14286" transform="matrix(0.866025 0.5 -2.20305e-08 1 19.9175 15.4286)" fill="url(#paint3_linear_4226:2583)"/>
<defs>
<linearGradient id="paint0_linear_4226:2583" x1="15.9047" y1="31.71" x2="15.9047" y2="0.149993" gradientUnits="userSpaceOnUse">
<stop stop-color="white" stop-opacity="0"/>
<stop offset="1" stop-color="white"/>
</linearGradient>
<linearGradient id="paint1_linear_4226:2583" x1="9.81203" y1="20.5714" x2="9.81203" y2="-4.87298e-07" gradientUnits="userSpaceOnUse">
<stop stop-color="#3C70F4"/>
<stop offset="1" stop-color="#638DF6"/>
</linearGradient>
<linearGradient id="paint2_linear_4226:2583" x1="8.69083" y1="12.0919" x2="12.9385" y2="28.6455" gradientUnits="userSpaceOnUse">
<stop stop-color="#EDF0F8"/>
<stop offset="1" stop-color="#D7DEEF"/>
</linearGradient>
<linearGradient id="paint3_linear_4226:2583" x1="0.334735" y1="0.334735" x2="1.95098" y2="1.95098" gradientUnits="userSpaceOnUse">
<stop stop-color="#EDF0F8"/>
<stop offset="1" stop-color="#D7DEEF"/>
</linearGradient>
</defs>
</svg>
