<svg viewBox="0 0 26 26" fill="none" xmlns="http://www.w3.org/2000/svg"><g clip-path="url(#clip0)"><path d="M25.06 25.06c-.292.294-.642.44-1.05.44-.406 0-.756-.146-1.05-.44L12 14.1l-2.563 2.563v.024c.293.294.439.648.439 1.063 0 .415-.146.769-.44 1.062-.292.293-.646.439-1.061.439-.416 0-.77-.146-1.062-.44L.939 12.44A1.447 1.447 0 01.5 11.375c0-.415.146-.769.44-1.061.292-.293.646-.44 1.061-.44.416 0 .77.146 1.062.44l.025.024 7.25-7.251-.023-.025a1.447 1.447 0 01-.44-1.062c0-.415.146-.769.44-1.062C10.607.646 10.96.5 11.377.5c.414 0 .768.146 1.061.44l6.373 6.372c.293.292.439.646.439 1.062 0 .415-.146.769-.44 1.062-.292.293-.646.439-1.061.439-.415 0-.77-.146-1.063-.44l-.024-.024-2.563 2.564L25.06 22.96c.293.293.439.643.439 1.05 0 .407-.146.757-.44 1.05z" fill="#717B97"/></g><defs><clipPath id="clip0"><path fill="#fff" transform="translate(.5 .5)" d="M0 0h25v25H0z"/></clipPath></defs></svg>