<svg viewBox="0 0 31 30" fill="none" xmlns="http://www.w3.org/2000/svg"><g clip-path="url(#clip0)"><path d="M4.25 11.25a11.25 11.25 0 1119.076 8.081c-.38.368-.673.75-.85 1.161l-1.428 3.317a.937.937 0 01-.86.566h-9.375a.937.937 0 01-.863-.566L8.523 20.49a3.682 3.682 0 00-.85-1.159 11.22 11.22 0 01-3.423-8.08zm5.625 15.938a.937.937 0 01.938-.938h9.374a.938.938 0 010 1.875l-.42.838A1.875 1.875 0 0118.091 30H12.91a1.875 1.875 0 01-1.677-1.037l-.42-.838a.938.938 0 01-.937-.937z" fill="#35D977"/></g><defs><clipPath id="clip0"><path fill="#fff" transform="translate(.5)" d="M0 0h30v30H0z"/></clipPath></defs></svg>