<svg fill="none" xmlns="http://www.w3.org/2000/svg" viewBox="0 0 43 43"><g filter="url(#filter0_d)"><g filter="url(#filter1_i)"><path d="M10.896 10.896a3.059 3.059 0 014.325 0l16.883 16.883a3.059 3.059 0 01-4.325 4.325L10.896 15.221a3.059 3.059 0 010-4.325z" fill="#4B7BF5"/><path d="M10.896 10.896a3.059 3.059 0 014.325 0l16.883 16.883a3.059 3.059 0 01-4.325 4.325L10.896 15.221a3.059 3.059 0 010-4.325z" fill="url(#paint3_linear)" fill-opacity=".15"/><path d="M32.104 10.896a3.059 3.059 0 00-4.325 0L10.896 27.779a3.059 3.059 0 004.325 4.325l16.883-16.883a3.059 3.059 0 000-4.325z" fill="#4B7BF5"/><path d="M32.104 10.896a3.059 3.059 0 00-4.325 0L10.896 27.779a3.059 3.059 0 004.325 4.325l16.883-16.883a3.059 3.059 0 000-4.325z" fill="url(#paint4_linear)" fill-opacity=".15"/></g></g><defs><linearGradient id="paint3_linear" x1="24.151" y1="23.174" x2="19.826" y2="18.849" gradientUnits="userSpaceOnUse"><stop stop-color="#fff" stop-opacity="0"/><stop offset="1" stop-color="#fff"/></linearGradient><linearGradient id="paint4_linear" x1="24.151" y1="23.174" x2="19.826" y2="18.849" gradientUnits="userSpaceOnUse"><stop stop-color="#fff" stop-opacity="0"/><stop offset="1" stop-color="#fff"/></linearGradient><filter id="filter0_d" x="0" y="0" width="43" height="43" filterUnits="userSpaceOnUse" color-interpolation-filters="sRGB"><feFlood flood-opacity="0" result="BackgroundImageFix"/><feColorMatrix in="SourceAlpha" values="0 0 0 0 0 0 0 0 0 0 0 0 0 0 0 0 0 0 127 0"/><feOffset/><feGaussianBlur stdDeviation="5"/><feColorMatrix values="0 0 0 0 1 0 0 0 0 1 0 0 0 0 1 0 0 0 0.65 0"/><feBlend in2="BackgroundImageFix" result="effect1_dropShadow"/><feBlend in="SourceGraphic" in2="effect1_dropShadow" result="shape"/></filter><filter id="filter1_i" x="10" y="10" width="23" height="23" filterUnits="userSpaceOnUse" color-interpolation-filters="sRGB"><feFlood flood-opacity="0" result="BackgroundImageFix"/><feBlend in="SourceGraphic" in2="BackgroundImageFix" result="shape"/><feColorMatrix in="SourceAlpha" values="0 0 0 0 0 0 0 0 0 0 0 0 0 0 0 0 0 0 127 0" result="hardAlpha"/><feOffset dy="1"/><feComposite in2="hardAlpha" operator="arithmetic" k2="-1" k3="1"/><feColorMatrix values="0 0 0 0 0.380392 0 0 0 0 0.701961 0 0 0 0 1 0 0 0 1 0"/><feBlend mode="lighten" in2="shape" result="effect1_innerShadow"/></filter></defs></svg>