<svg fill="none" xmlns="http://www.w3.org/2000/svg" viewBox="0 0 43 43"><g filter="url(#filter0_d)"><g filter="url(#filter1_i)"><path d="M10 13.753A3.753 3.753 0 0113.753 10h15.494A3.753 3.753 0 0133 13.753c0 .518-.42.938-.938.938H10.938a.938.938 0 01-.938-.938z" fill="#4B7BF5"/><path d="M10 13.753A3.753 3.753 0 0113.753 10h15.494A3.753 3.753 0 0133 13.753c0 .518-.42.938-.938.938H10.938a.938.938 0 01-.938-.938z" fill="url(#paint0_linear)" fill-opacity=".15"/></g><g filter="url(#filter2_i)"><path d="M10 29.247A3.753 3.753 0 0013.753 33h15.494A3.753 3.753 0 0033 29.247a.938.938 0 00-.938-.938H10.938a.938.938 0 00-.938.938z" fill="#4B7BF5"/><path d="M10 29.247A3.753 3.753 0 0013.753 33h15.494A3.753 3.753 0 0033 29.247a.938.938 0 00-.938-.938H10.938a.938.938 0 00-.938.938z" fill="url(#paint1_linear)" fill-opacity=".15"/></g><rect x="10" y="19.154" width="23" height="4.691" rx="2.345" fill="#4B7BF5"/></g><defs><filter id="filter0_d" x="0" y="0" width="43" height="43" filterUnits="userSpaceOnUse" color-interpolation-filters="sRGB"><feFlood flood-opacity="0" result="BackgroundImageFix"/><feColorMatrix in="SourceAlpha" values="0 0 0 0 0 0 0 0 0 0 0 0 0 0 0 0 0 0 127 0"/><feOffset/><feGaussianBlur stdDeviation="5"/><feColorMatrix values="0 0 0 0 1 0 0 0 0 1 0 0 0 0 1 0 0 0 0.65 0"/><feBlend in2="BackgroundImageFix" result="effect1_dropShadow"/><feBlend in="SourceGraphic" in2="effect1_dropShadow" result="shape"/></filter><filter id="filter1_i" x="10" y="10" width="23" height="4.691" filterUnits="userSpaceOnUse" color-interpolation-filters="sRGB"><feFlood flood-opacity="0" result="BackgroundImageFix"/><feBlend in="SourceGraphic" in2="BackgroundImageFix" result="shape"/><feColorMatrix in="SourceAlpha" values="0 0 0 0 0 0 0 0 0 0 0 0 0 0 0 0 0 0 127 0" result="hardAlpha"/><feOffset dy="1"/><feComposite in2="hardAlpha" operator="arithmetic" k2="-1" k3="1"/><feColorMatrix values="0 0 0 0 0.380392 0 0 0 0 0.701961 0 0 0 0 1 0 0 0 1 0"/><feBlend mode="lighten" in2="shape" result="effect1_innerShadow"/></filter><filter id="filter2_i" x="10" y="28.309" width="23" height="4.691" filterUnits="userSpaceOnUse" color-interpolation-filters="sRGB"><feFlood flood-opacity="0" result="BackgroundImageFix"/><feBlend in="SourceGraphic" in2="BackgroundImageFix" result="shape"/><feColorMatrix in="SourceAlpha" values="0 0 0 0 0 0 0 0 0 0 0 0 0 0 0 0 0 0 127 0" result="hardAlpha"/><feOffset dy="-1"/><feComposite in2="hardAlpha" operator="arithmetic" k2="-1" k3="1"/><feColorMatrix values="0 0 0 0 0.380392 0 0 0 0 0.701961 0 0 0 0 1 0 0 0 1 0"/><feBlend mode="lighten" in2="shape" result="effect1_innerShadow"/></filter><linearGradient id="paint0_linear" x1="20.97" y1="14.691" x2="20.97" y2="10" gradientUnits="userSpaceOnUse"><stop stop-color="#fff" stop-opacity="0"/><stop offset="1" stop-color="#fff"/></linearGradient><linearGradient id="paint1_linear" x1="20.97" y1="28.309" x2="20.97" y2="33" gradientUnits="userSpaceOnUse"><stop stop-color="#fff" stop-opacity="0"/><stop offset="1" stop-color="#fff"/></linearGradient></defs></svg>