<svg fill="none" xmlns="http://www.w3.org/2000/svg" viewBox="0 0 43 43"><g filter="url(#filter0_d)"><path d="M15.58 27.216s5.333 5.8 9.715 5.784c1.75-.007 5.43-1.4 7.032-3.472 1.603-2.073-3.527-4.76-4.935-4.942-.99-.118-1.72.694-2.419 1.472-.394.438-.778.866-1.194 1.109-1.862.794-5.142-2.83-5.142-2.83l-.051-.053-.05-.055s-3.422-3.491-2.517-5.3c.268-.4.718-.758 1.18-1.125.818-.65 1.674-1.33 1.615-2.325-.096-1.415-2.47-6.696-4.637-5.222-2.167 1.474-3.78 5.062-3.891 6.807-.281 4.37 5.295 10.152 5.295 10.152z" fill="#3C70F4"/><path d="M15.58 27.216s5.333 5.8 9.715 5.784c1.75-.007 5.43-1.4 7.032-3.472 1.603-2.073-3.527-4.76-4.935-4.942-.99-.118-1.72.694-2.419 1.472-.394.438-.778.866-1.194 1.109-1.862.794-5.142-2.83-5.142-2.83l-.051-.053-.05-.055s-3.422-3.491-2.517-5.3c.268-.4.718-.758 1.18-1.125.818-.65 1.674-1.33 1.615-2.325-.096-1.415-2.47-6.696-4.637-5.222-2.167 1.474-3.78 5.062-3.891 6.807-.281 4.37 5.295 10.152 5.295 10.152z" fill="url(#paint0_linear)" fill-opacity=".2"/><path d="M16.873 18.064c-.32.265-.63.58-.824.87-.909 1.818 2.48 5.28 2.48 5.28l.05.056.052.054s3.29 3.64 5.158 2.841c.301-.176.59-.458.873-.762-.276.603-.613 2.362-1.603 2.474-.99.111-3.403-1.24-5.588-3.563-2.186-2.323-3.563-4.756-3.392-5.738.17-.982 2.176-1.272 2.794-1.512z" fill="#58AFFF"/></g><defs><linearGradient id="paint0_linear" x1="14.483" y1="27.29" x2="25.255" y2="16.514" gradientUnits="userSpaceOnUse"><stop stop-color="#fff" stop-opacity="0"/><stop offset="1" stop-color="#fff"/></linearGradient><filter id="filter0_d" x="0" y="0" width="43" height="43" filterUnits="userSpaceOnUse" color-interpolation-filters="sRGB"><feFlood flood-opacity="0" result="BackgroundImageFix"/><feColorMatrix in="SourceAlpha" values="0 0 0 0 0 0 0 0 0 0 0 0 0 0 0 0 0 0 127 0"/><feOffset/><feGaussianBlur stdDeviation="5"/><feColorMatrix values="0 0 0 0 1 0 0 0 0 1 0 0 0 0 1 0 0 0 0.65 0"/><feBlend in2="BackgroundImageFix" result="effect1_dropShadow"/><feBlend in="SourceGraphic" in2="effect1_dropShadow" result="shape"/></filter></defs></svg>