<svg fill="none" xmlns="http://www.w3.org/2000/svg" viewBox="0 0 80 60"><path d="M78.11 9.687c-.916-3.617-3.598-6.47-7-7.443C64.892.435 40.03.435 40.03.435s-24.863 0-31.079 1.74c-3.337.973-6.085 3.895-7 7.512C.313 16.296.313 30 .313 30s0 13.774 1.636 20.313c.916 3.617 3.599 6.47 7.001 7.443 6.281 1.809 31.08 1.809 31.08 1.809s24.862 0 31.078-1.74c3.403-.973 6.085-3.825 7.001-7.443 1.636-6.608 1.636-20.312 1.636-20.312s.065-13.774-1.636-20.383z" fill="red"/><path d="M52.789 30L32.113 17.34v25.32L52.79 30z" fill="#fff"/></svg>