<svg fill="none" xmlns="http://www.w3.org/2000/svg" viewBox="0 0 33 32"><path d="M12.818 1.197C10.885.166 7.076 2.16 5.982 3.913c-.487.785-.453 1.351-.453 1.672v14.968a4 4 0 0 0 1.866 3.383l10.916 6.888a3 3 0 0 0 3.054.088l.102-.057a2 2 0 0 0 1.03-1.75V15.86a4 4 0 0 0-1.986-3.457L9.816 6.176c-1.049-.61-1.297-2.041-.219-2.598.7-.361 1.464-.537 2.12-.294l10.968 5.949a4 4 0 0 1 2.093 3.516v15.064a.7.7 0 0 0 1.039.612l.622-.344a2 2 0 0 0 1.032-1.75V11.298a4 4 0 0 0-2.143-3.543L12.818 1.197Z" fill="url(#a)"/><path d="M5.779 9.888c0-1.352 1.467-2.193 2.634-1.51l9.067 5.308a3.75 3.75 0 0 1 1.856 3.236v11.213c0 1.38-1.522 2.217-2.687 1.478L7.52 23.824a3.75 3.75 0 0 1-1.742-3.167V9.888Z" fill="url(#b)" stroke="#7EA3FF" stroke-width=".5"/><path d="M12.235 21.534c.207.12.382.307.523.561.15.25.224.494.224.733 0 .23-.07.386-.212.468-.14.081-.32.06-.535-.065a1.468 1.468 0 0 1-.536-.554c-.133-.24-.199-.474-.199-.704 0-.24.07-.4.212-.482.14-.091.315-.077.523.043Zm.498-1.617c0 .305-.215.43-.48.276a1.06 1.06 0 0 1-.479-.83v-5.651c0-.306.215-.43.48-.277.264.153.479.525.479.83v5.651Z" fill="#fff"/><defs><linearGradient id="a" x1="15.995" y1="31.771" x2="15.995" y2=".914" gradientUnits="userSpaceOnUse"><stop stop-color="#3C70F4"/><stop offset="1" stop-color="#638DF6"/></linearGradient><linearGradient id="b" x1="12.557" y1="6.4" x2="12.557" y2="31.771" gradientUnits="userSpaceOnUse"><stop stop-color="#7EA3FF"/><stop offset="1" stop-color="#6187E7"/></linearGradient></defs></svg>