<svg fill="#717B97" xmlns="http://www.w3.org/2000/svg" viewBox="0 0 31 19"><path d="M13.62 7.394c0 3.556-1.483 7.424-4.45 11.606l-4.48-.364c1.243-2.565 2.105-5.495 2.586-8.788h-4.84C1.213 9.848.5 9.748.3 9.545.1 9.343 0 8.626 0 7.394V3.697v-.94-1.272c.02-.323.09-.626.21-.91C.33.274.491.102.692.062c.2-.04.52-.061.962-.061h9.772c.862 0 1.443.08 1.744.242.32.142.48.606.48 1.394l-.03 5.758zm11.066 2.454h-4.871c-1.223 0-1.935-.1-2.135-.303-.2-.202-.3-.919-.3-2.151V3.697v-.879-1.273c.02-.343.09-.666.21-.97.12-.302.28-.474.48-.514.221-.04.552-.061.993-.061h9.772c.842 0 1.413.07 1.714.212.3.142.451.616.451 1.424v5.758c0 3.576-1.473 7.444-4.42 11.606l-4.51-.364c1.243-2.565 2.115-5.495 2.616-8.788z"/></svg>