<svg fill="none" xmlns="http://www.w3.org/2000/svg" viewBox="0 0 18 20"><path fill-rule="evenodd" clip-rule="evenodd" d="M9 0c-.887 0-2.37.331-3.765.7a80.136 80.136 0 00-3.711 1.088 1.983 1.983 0 00-.905.6c-.238.28-.39.618-.438.977-.766 5.596 1.012 9.744 3.17 12.487a14.956 14.956 0 003.236 3.067c.496.341.956.602 1.347.781.36.165.747.3 1.066.3.319 0 .705-.135 1.066-.3a9.27 9.27 0 001.347-.781 14.954 14.954 0 003.236-3.067c2.158-2.743 3.936-6.89 3.17-12.487a1.9 1.9 0 00-.438-.977 1.984 1.984 0 00-.905-.602A82.045 82.045 0 0012.765.7C11.37.333 9.887 0 9 0zm2.76 6.433a.653.653 0 01.91 0 .617.617 0 010 .885l-3.858 3.75a.644.644 0 01-.455.183.659.659 0 01-.455-.183L5.973 9.193a.625.625 0 01-.188-.443.61.61 0 01.188-.443.645.645 0 01.456-.183.66.66 0 01.455.183l1.473 1.434 3.402-3.308z" fill="#8A929F"/></svg>