<svg xmlns="http://www.w3.org/2000/svg" viewBox="0 0 18 19"><path fill-rule="evenodd" clip-rule="evenodd" d="M2.7 1.5c-.716 0-1.403.281-1.91.781A2.65 2.65 0 000 4.167v10.666c0 .708.284 1.386.79 1.886.507.5 1.194.781 1.91.781h12.6c.444 0 1.09-.124 1.65-.523.609-.433 1.05-1.144 1.05-2.144V8.61a2.638 2.638 0 00-.791-1.884 2.702 2.702 0 00-1.909-.78v6.666c0 .118-.047.231-.132.314a.453.453 0 01-.636 0 .442.442 0 01-.132-.314V4.167a2.65 2.65 0 00-.79-1.886A2.717 2.717 0 0011.7 1.5h-9zm1.8 3.556a.906.906 0 00-.636.26.883.883 0 00-.264.628V9.5c0 .236.095.462.264.629.168.166.397.26.636.26h5.4a.906.906 0 00.636-.26.883.883 0 00.264-.629V5.944a.883.883 0 00-.264-.628.906.906 0 00-.636-.26H4.5zm0 7.11a.906.906 0 00-.636.261.883.883 0 000 1.257c.168.167.397.26.636.26h5.4a.906.906 0 00.636-.26.883.883 0 000-1.257.906.906 0 00-.636-.26H4.5z" fill="#717B97"/></svg>