<svg fill="none" xmlns="http://www.w3.org/2000/svg" viewBox="0 0 19 20"><path fill-rule="evenodd" clip-rule="evenodd" d="M5.714.714A.714.714 0 016.428 0h5.714a.714.714 0 110 1.429H6.428a.714.714 0 01-.714-.715zM9.285 20a8.571 8.571 0 100-17.142 8.571 8.571 0 000 17.142zm0-14.286a.714.714 0 01.715.714v5.715a.715.715 0 01-1.429 0V6.428a.714.714 0 01.714-.714zm6.846-3.528a.714.714 0 01.232.16l2.004 2.004a.716.716 0 01-.503 1.228.715.715 0 01-.507-.218l-2.005-2.004a.716.716 0 01.503-1.228c.095 0 .189.02.276.058z" fill="#717B97"/></svg>