<svg width="99" height="133" viewBox="0 0 99 133" fill="none" xmlns="http://www.w3.org/2000/svg">
<path d="M64.7184 24.7442C71.523 24.7442 77.0905 19.1767 77.0905 12.3721C77.0905 5.56744 71.523 0 64.7184 0C57.9137 0 52.3463 5.56744 52.3463 12.3721C52.3463 19.1767 57.9137 24.7442 64.7184 24.7442ZM45.1086 98.9767L48.6346 83.5116L61.6253 95.8837V126.814C61.6253 130.216 64.4091 133 67.8114 133C71.2137 133 73.9974 130.216 73.9974 126.814V91.9247C73.9974 88.5223 72.6365 85.3056 70.1621 82.9549L61.0067 74.2326L64.7184 55.6744C71.6895 63.644 81.2328 68.919 91.6895 70.5828C95.4012 71.1395 98.7416 68.1702 98.7416 64.3967C98.7416 61.3656 96.5146 58.8293 93.4835 58.3344C84.0807 56.7879 76.2863 51.2205 72.1416 43.9209L65.9556 34.0233C63.4812 30.3116 59.7695 27.8372 55.4393 27.8372C53.5835 27.8372 52.3463 28.4558 50.4905 28.4558L25.87 38.8484C23.6289 39.8063 21.7187 41.4018 20.3769 43.4364C19.0351 45.4711 18.3209 47.8553 18.323 50.2926V64.9535C18.323 68.3558 21.1067 71.1395 24.5091 71.1395C27.9114 71.1395 30.6951 68.3558 30.6951 64.9535V50.107L41.83 45.7767L31.9323 95.8837L7.68301 90.9349C4.34255 90.2544 1.06394 92.4195 0.383479 95.76V96.0074C-0.296986 99.3479 1.86813 102.627 5.2086 103.307L30.6332 108.38C33.7955 109.007 37.0779 108.376 39.7816 106.62C42.4852 104.863 44.3965 102.121 45.1086 98.9767Z" fill="#154AD0"/>
<path d="M64.7184 24.7442C71.523 24.7442 77.0905 19.1767 77.0905 12.3721C77.0905 5.56744 71.523 0 64.7184 0C57.9137 0 52.3463 5.56744 52.3463 12.3721C52.3463 19.1767 57.9137 24.7442 64.7184 24.7442ZM45.1086 98.9767L48.6346 83.5116L61.6253 95.8837V126.814C61.6253 130.216 64.4091 133 67.8114 133C71.2137 133 73.9974 130.216 73.9974 126.814V91.9247C73.9974 88.5223 72.6365 85.3056 70.1621 82.9549L61.0067 74.2326L64.7184 55.6744C71.6895 63.644 81.2328 68.919 91.6895 70.5828C95.4012 71.1395 98.7416 68.1702 98.7416 64.3967C98.7416 61.3656 96.5146 58.8293 93.4835 58.3344C84.0807 56.7879 76.2863 51.2205 72.1416 43.9209L65.9556 34.0233C63.4812 30.3116 59.7695 27.8372 55.4393 27.8372C53.5835 27.8372 52.3463 28.4558 50.4905 28.4558L25.87 38.8484C23.6289 39.8063 21.7187 41.4018 20.3769 43.4364C19.0351 45.4711 18.3209 47.8553 18.323 50.2926V64.9535C18.323 68.3558 21.1067 71.1395 24.5091 71.1395C27.9114 71.1395 30.6951 68.3558 30.6951 64.9535V50.107L41.83 45.7767L31.9323 95.8837L7.68301 90.9349C4.34255 90.2544 1.06394 92.4195 0.383479 95.76V96.0074C-0.296986 99.3479 1.86813 102.627 5.2086 103.307L30.6332 108.38C33.7955 109.007 37.0779 108.376 39.7816 106.62C42.4852 104.863 44.3965 102.121 45.1086 98.9767Z" fill="url(#paint0_linear)" fill-opacity="0.2"/>
<defs>
<linearGradient id="paint0_linear" x1="47.2323" y1="133" x2="47.2323" y2="-3.15052e-06" gradientUnits="userSpaceOnUse">
<stop stop-color="white" stop-opacity="0"/>
<stop offset="1" stop-color="white"/>
</linearGradient>
</defs>
</svg>
