<svg width="131" height="133" viewBox="0 0 131 133" fill="none" xmlns="http://www.w3.org/2000/svg">
<path d="M125.843 70.0103C128.554 66.4274 130.055 62.0377 130.055 57.4704C130.055 50.2241 126.004 43.3651 119.484 39.5402C117.806 38.5556 115.895 38.0375 113.949 38.0393H75.2479L76.2162 18.2047C76.4422 13.4115 74.7476 8.86032 71.4553 5.39048C69.8395 3.68022 67.8902 2.31948 65.7279 1.39234C63.5655 0.465199 61.2359 -0.00863448 58.8831 0.000119107C50.491 0.000119107 43.0671 5.6487 40.84 13.7342L26.9767 63.9259H26.9283V133H103.152C104.637 133 106.089 132.709 107.429 132.128C115.111 128.852 120.065 121.348 120.065 113.02C120.065 110.987 119.775 108.985 119.194 107.049C121.905 103.466 123.406 99.0762 123.406 94.5089C123.406 92.4755 123.116 90.4743 122.535 88.5376C125.246 84.9548 126.747 80.565 126.747 75.9977C126.715 73.9643 126.424 71.9469 125.843 70.0103ZM0.944824 69.0903V127.836C0.944824 130.692 3.25267 133 6.10924 133H16.5995V63.9259H6.10924C3.25267 63.9259 0.944824 66.2338 0.944824 69.0903Z" fill="url(#paint0_linear)"/>
<defs>
<linearGradient id="paint0_linear" x1="65.5" y1="0" x2="65.5" y2="133" gradientUnits="userSpaceOnUse">
<stop stop-color="#FB5A80"/>
<stop offset="1" stop-color="#F23965"/>
</linearGradient>
</defs>
</svg>
