<svg viewBox="0 0 35 35" fill="none" xmlns="http://www.w3.org/2000/svg"><g filter="url(#filter0_i)"><path d="M0 8.64c0-2.228 1.877-4.035 4.192-4.035h22.01c2.316 0 4.193 1.807 4.193 4.035v13.114c0 2.229-1.877 4.035-4.193 4.035H4.192C1.877 25.79 0 23.983 0 21.754V8.64z" fill="url(#paint0_linear)"/></g><path d="M3.684 13.816a.46.46 0 01.46-.46h3.224a.46.46 0 01.46.46v1.842a.46.46 0 01-.46.46H4.145a.46.46 0 01-.46-.46v-1.842zM3.684 17.96a.46.46 0 01.46-.46h9.672a.46.46 0 010 .921H4.145a.46.46 0 01-.46-.46zM3.684 20.263a.46.46 0 01.46-.46H7.83a.46.46 0 010 .921H4.145a.46.46 0 01-.46-.46zM14.737 20.263a.46.46 0 01.46-.46h3.685a.46.46 0 010 .921h-3.685a.46.46 0 01-.46-.46zM9.21 20.263a.46.46 0 01.461-.46h3.684a.46.46 0 010 .921H9.671a.46.46 0 01-.46-.46zM20.263 20.263a.46.46 0 01.46-.46h3.685a.46.46 0 110 .921h-3.684a.46.46 0 01-.46-.46z" fill="#4EBFFF"/><path d="M35 21.415a8.98 8.98 0 11-17.96 0 8.98 8.98 0 0117.96 0z" fill="#154AD0"/><path d="M35 21.415a8.98 8.98 0 11-17.96 0 8.98 8.98 0 0117.96 0z" fill="url(#paint1_linear)" fill-opacity=".2"/><path d="M25.3 23.078a.134.134 0 00-.133.134v.394c0 .074.06.135.132.135h2.278c.074 0 .133.06.133.135v.713c0 .074-.06.135-.133.135H25.3a.134.134 0 00-.132.134v.797c0 .074-.06.134-.133.134H23.38a.134.134 0 01-.133-.134v-.797a.134.134 0 00-.132-.134h-.877a.134.134 0 01-.133-.135v-.713c0-.075.06-.135.133-.135h.877c.073 0 .132-.06.132-.135v-5.702c0-.223.178-.404.398-.404h3.17c1.123 0 1.998.237 2.626.71.636.474.954 1.169.954 2.085 0 .908-.318 1.598-.954 2.072-.628.474-1.503.71-2.626.71H25.3zm3.164-2.771c0-.403-.146-.71-.436-.924-.283-.213-.69-.32-1.225-.32H25.3a.134.134 0 00-.132.135v2.24c0 .075.06.136.132.136h1.504c.534 0 .942-.107 1.225-.32.29-.221.436-.537.436-.947z" fill="#FFBB16"/><defs><linearGradient id="paint0_linear" x1="14.498" y1="25.789" x2="14.498" y2="4.605" gradientUnits="userSpaceOnUse"><stop stop-color="#3C70F4"/><stop offset="1" stop-color="#638DF6"/></linearGradient><linearGradient id="paint1_linear" x1="25.606" y1="30.395" x2="25.606" y2="12.434" gradientUnits="userSpaceOnUse"><stop stop-color="#fff" stop-opacity="0"/><stop offset="1" stop-color="#fff"/></linearGradient><filter id="filter0_i" x="0" y="4.605" width="30.395" height="21.184" filterUnits="userSpaceOnUse" color-interpolation-filters="sRGB"><feFlood flood-opacity="0" result="BackgroundImageFix"/><feBlend in="SourceGraphic" in2="BackgroundImageFix" result="shape"/><feColorMatrix in="SourceAlpha" values="0 0 0 0 0 0 0 0 0 0 0 0 0 0 0 0 0 0 127 0" result="hardAlpha"/><feOffset dy="3"/><feComposite in2="hardAlpha" operator="arithmetic" k2="-1" k3="1"/><feColorMatrix values="0 0 0 0 0.380392 0 0 0 0 0.701961 0 0 0 0 1 0 0 0 1 0"/><feBlend mode="lighten" in2="shape" result="effect1_innerShadow"/></filter></defs></svg>