<svg width="133" height="133" viewBox="0 0 133 133" fill="none" xmlns="http://www.w3.org/2000/svg">
<path d="M66.5 0C29.7766 0 0 29.7766 0 66.5C0 103.223 29.7766 133 66.5 133C103.223 133 133 103.223 133 66.5C133 29.7766 103.223 0 66.5 0ZM66.5 105.094C63.2195 105.094 60.5625 102.437 60.5625 99.1562C60.5625 95.8758 63.2195 93.2188 66.5 93.2188C69.7805 93.2188 72.4375 95.8758 72.4375 99.1562C72.4375 102.437 69.7805 105.094 66.5 105.094ZM75.8367 72.5117C74.4924 73.0308 73.3358 73.943 72.5176 75.1292C71.6994 76.3155 71.2577 77.7207 71.25 79.1617V82.5312C71.25 83.1844 70.7156 83.7188 70.0625 83.7188H62.9375C62.2844 83.7188 61.75 83.1844 61.75 82.5312V79.3398C61.75 75.9109 62.7445 72.5266 64.7039 69.7062C66.6188 66.9453 69.2906 64.8375 72.4375 63.6352C77.4844 61.6906 80.75 57.4602 80.75 52.8438C80.75 46.2977 74.3523 40.9688 66.5 40.9688C58.6477 40.9688 52.25 46.2977 52.25 52.8438V53.9719C52.25 54.625 51.7156 55.1594 51.0625 55.1594H43.9375C43.2844 55.1594 42.75 54.625 42.75 53.9719V52.8438C42.75 47.0102 45.3031 41.5625 49.9344 37.5102C54.3875 33.6063 60.2656 31.4688 66.5 31.4688C72.7344 31.4688 78.6125 33.6211 83.0656 37.5102C87.6969 41.5625 90.25 47.0102 90.25 52.8438C90.25 61.4234 84.5945 69.1422 75.8367 72.5117Z" fill="#154AD0"/>
<path d="M66.5 0C29.7766 0 0 29.7766 0 66.5C0 103.223 29.7766 133 66.5 133C103.223 133 133 103.223 133 66.5C133 29.7766 103.223 0 66.5 0ZM66.5 105.094C63.2195 105.094 60.5625 102.437 60.5625 99.1562C60.5625 95.8758 63.2195 93.2188 66.5 93.2188C69.7805 93.2188 72.4375 95.8758 72.4375 99.1562C72.4375 102.437 69.7805 105.094 66.5 105.094ZM75.8367 72.5117C74.4924 73.0308 73.3358 73.943 72.5176 75.1292C71.6994 76.3155 71.2577 77.7207 71.25 79.1617V82.5312C71.25 83.1844 70.7156 83.7188 70.0625 83.7188H62.9375C62.2844 83.7188 61.75 83.1844 61.75 82.5312V79.3398C61.75 75.9109 62.7445 72.5266 64.7039 69.7062C66.6188 66.9453 69.2906 64.8375 72.4375 63.6352C77.4844 61.6906 80.75 57.4602 80.75 52.8438C80.75 46.2977 74.3523 40.9688 66.5 40.9688C58.6477 40.9688 52.25 46.2977 52.25 52.8438V53.9719C52.25 54.625 51.7156 55.1594 51.0625 55.1594H43.9375C43.2844 55.1594 42.75 54.625 42.75 53.9719V52.8438C42.75 47.0102 45.3031 41.5625 49.9344 37.5102C54.3875 33.6063 60.2656 31.4688 66.5 31.4688C72.7344 31.4688 78.6125 33.6211 83.0656 37.5102C87.6969 41.5625 90.25 47.0102 90.25 52.8438C90.25 61.4234 84.5945 69.1422 75.8367 72.5117Z" fill="url(#paint0_linear)" fill-opacity="0.2"/>
<defs>
<linearGradient id="paint0_linear" x1="63.4375" y1="133" x2="63.4375" y2="-3.15052e-06" gradientUnits="userSpaceOnUse">
<stop stop-color="white" stop-opacity="0"/>
<stop offset="1" stop-color="white"/>
</linearGradient>
</defs>
</svg>
