<svg fill="none" xmlns="http://www.w3.org/2000/svg" viewBox="0 0 33 47"><g filter="url(#filter0_i)"><path d="M0 6.185A6.186 6.186 0 016.188 0h20.625A6.186 6.186 0 0133 6.185v34.63A6.186 6.186 0 0126.812 47H6.188A6.186 6.186 0 010 40.815V6.185z" fill="#3C70F4"/><path d="M0 6.185A6.186 6.186 0 016.188 0h20.625A6.186 6.186 0 0133 6.185v34.63A6.186 6.186 0 0126.812 47H6.188A6.186 6.186 0 010 40.815V6.185z" fill="url(#paint0_linear)" fill-opacity=".2"/></g><path d="M7.734 17.773c0-.427.347-.773.774-.773h15.984a.773.773 0 110 1.546H8.508a.773.773 0 01-.774-.773zM7.734 22.927c0-.427.347-.773.774-.773h15.984a.773.773 0 110 1.546H8.508a.773.773 0 01-.774-.773z" fill="#4EBFFF"/><circle cx="24" cy="36" r="4.5" stroke="#4EBFFF"/><circle cx="24" cy="36" r="3" fill="#FFBB16"/><path d="M14.103 7.874a.193.193 0 00-.23-.05l-3.775 1.783c-.139.065-.128.248.018.3l2.951 1.045c.058.02.123.02.18-.002l1.948-.736a.196.196 0 01.18.022l.95.662c.071.05.092.139.049.21l-.576.955a.156.156 0 00.056.215L17 13V8.3l-.374-1.18c-.029-.091-.135-.142-.234-.11l-.701.22c-.15.047-.166.235-.024.302l.323.153c.087.04.122.137.08.218l-.646 1.219c-.06.112-.23.126-.31.025l-1.01-1.273zM19.897 7.874a.193.193 0 01.23-.05l3.775 1.783c.139.065.128.248-.018.3l-2.951 1.045a.264.264 0 01-.18-.002l-1.948-.736a.196.196 0 00-.18.022l-.95.662a.155.155 0 00-.049.21l.576.955a.156.156 0 01-.056.215L17 13V8.3l.374-1.18c.029-.091.135-.142.234-.11l.701.22c.15.047.166.235.024.302l-.323.153c-.087.04-.122.137-.08.218l.646 1.219c.06.112.23.126.31.025l1.01-1.273z" fill="#FFBB16"/><defs><linearGradient id="paint0_linear" x1="15.74" y1="47" x2="15.74" y2="0" gradientUnits="userSpaceOnUse"><stop stop-color="#fff" stop-opacity="0"/><stop offset="1" stop-color="#fff"/></linearGradient><filter id="filter0_i" x="0" y="0" width="33" height="47" filterUnits="userSpaceOnUse" color-interpolation-filters="sRGB"><feFlood flood-opacity="0" result="BackgroundImageFix"/><feBlend in="SourceGraphic" in2="BackgroundImageFix" result="shape"/><feColorMatrix in="SourceAlpha" values="0 0 0 0 0 0 0 0 0 0 0 0 0 0 0 0 0 0 127 0" result="hardAlpha"/><feOffset dy="2"/><feComposite in2="hardAlpha" operator="arithmetic" k2="-1" k3="1"/><feColorMatrix values="0 0 0 0 0.380392 0 0 0 0 0.701961 0 0 0 0 1 0 0 0 1 0"/><feBlend mode="lighten" in2="shape" result="effect1_innerShadow"/></filter></defs></svg>