<svg fill="none" xmlns="http://www.w3.org/2000/svg" viewBox="0 0 33 47"><path d="M17.172 5.254c1.762 0 2.713 2.066 1.566 3.403l-7.555 8.81-7.555 8.81C2.382 27.73 0 26.848 0 24.934V7.315c0-1.138.923-2.061 2.063-2.061h15.109z" fill="#154AD0"/><path d="M17.172 5.254c1.762 0 2.713 2.066 1.566 3.403l-7.555 8.81-7.555 8.81C2.382 27.73 0 26.848 0 24.934V7.315c0-1.138.923-2.061 2.063-2.061h15.109z" fill="url(#paint0_linear)" fill-opacity=".2"/><path d="M0 2a2 2 0 012-2h13.81a3 3 0 012.762 1.83l5.25 12.39A2 2 0 0121.98 17H2a2 2 0 01-2-2V2z" fill="#154AD0"/><path d="M0 2a2 2 0 012-2h13.81a3 3 0 012.762 1.83l5.25 12.39A2 2 0 0121.98 17H2a2 2 0 01-2-2V2z" fill="url(#paint1_linear)" fill-opacity=".2"/><g filter="url(#filter0_i)"><path d="M0 6h26.813c3.417 0 6.188 3.06 6.188 6.834v27.333C33 43.94 30.23 47 26.813 47H6.188C2.771 47 .001 43.94.001 40.167L0 6z" fill="#3C70F4"/><path d="M0 6h26.813c3.417 0 6.188 3.06 6.188 6.834v27.333C33 43.94 30.23 47 26.813 47H6.188C2.771 47 .001 43.94.001 40.167L0 6z" fill="url(#paint2_linear)" fill-opacity=".2"/></g><defs><linearGradient id="paint0_linear" x1="9.176" y1="27" x2="9.176" y2="5.254" gradientUnits="userSpaceOnUse"><stop stop-color="#fff" stop-opacity="0"/><stop offset="1" stop-color="#fff"/></linearGradient><linearGradient id="paint1_linear" x1="11.439" y1="17" x2="11.439" y2="0" gradientUnits="userSpaceOnUse"><stop stop-color="#fff" stop-opacity="0"/><stop offset="1" stop-color="#fff"/></linearGradient><linearGradient id="paint2_linear" x1="15.741" y1="47" x2="15.74" y2="6" gradientUnits="userSpaceOnUse"><stop stop-color="#fff" stop-opacity="0"/><stop offset="1" stop-color="#fff"/></linearGradient><filter id="filter0_i" x="0" y="6" width="33.001" height="41" filterUnits="userSpaceOnUse" color-interpolation-filters="sRGB"><feFlood flood-opacity="0" result="BackgroundImageFix"/><feBlend in="SourceGraphic" in2="BackgroundImageFix" result="shape"/><feColorMatrix in="SourceAlpha" values="0 0 0 0 0 0 0 0 0 0 0 0 0 0 0 0 0 0 127 0" result="hardAlpha"/><feOffset dy="2"/><feComposite in2="hardAlpha" operator="arithmetic" k2="-1" k3="1"/><feColorMatrix values="0 0 0 0 0.380392 0 0 0 0 0.701961 0 0 0 0 1 0 0 0 1 0"/><feBlend mode="lighten" in2="shape" result="effect1_innerShadow"/></filter></defs></svg>