<svg fill="none" xmlns="http://www.w3.org/2000/svg" viewBox="0 0 105 31"><path d="M7.598 19.686v1.695h2.793v-11.23H7.373v5.12c0 1.247-.077 2.099-.23 2.561a2.113 2.113 0 01-.853 1.113c-.414.28-.883.42-1.406.42-.408 0-.757-.097-1.047-.294a1.637 1.637 0 01-.628-.825c-.129-.351-.193-1.132-.193-2.337V10.15H0v6.99c0 .86.055 1.52.165 1.983.112.46.31.872.592 1.237.282.363.699.66 1.251.896.551.234 1.16.35 1.83.35 1.51 0 2.762-.639 3.76-1.92zm4.134-9.536h2.97v4.162h4.256V10.15h2.967v11.231h-2.967V16.7H14.7v4.681h-2.97v-11.23zm17.309 0h-6.036v3.513l3.016-1.157v8.891h3.02v-8.89l3.02 1.156V10.15h-3.02zm7.42 2.712c.556-.512 1.218-.76 2.022-.76.81 0 1.45.282 1.96.863.315.367.482.787.584 1.232H35.62c.177-.527.45-.973.842-1.335zm4.977 4.842s-.524 1.15-1.552 1.66c-.383.19-.864.285-1.424.285-.996 0-1.76-.37-2.33-1.13a3.84 3.84 0 01-.753-1.855h8.512s.36-3.05-1.18-5.002c-1.038-1.318-2.431-2.027-4.25-2.027-1.863 0-3.362.645-4.459 1.917-1.005 1.162-1.518 2.616-1.518 4.323 0 1.66.513 3.097 1.518 4.275 1.11 1.304 2.613 1.965 4.458 1.965 1.299 0 2.441-.354 3.396-1.05 1.744-1.273 2.424-3.361 2.424-3.361h-2.843zm10.753.705c-.456.555-1.029.833-1.715.833-.716 0-1.323-.303-1.822-.907-.497-.605-.747-1.54-.747-2.805 0-1.102.238-1.936.716-2.498.478-.563 1.076-.841 1.801-.841.694 0 1.275.284 1.744.858.47.572.707 1.449.707 2.63 0 1.265-.229 2.173-.684 2.73zm2.35-7.02c-.907-1.02-2.01-1.533-3.31-1.533-.748 0-1.428.181-2.04.541a4.27 4.27 0 00-1.454 1.38v-1.635h-2.77v15.41h2.97v-5.606c.555.595 1.082 1.013 1.585 1.258a3.806 3.806 0 001.686.369c1.3 0 2.407-.52 3.323-1.557.913-1.039 1.37-2.493 1.37-4.365 0-1.822-.453-3.243-1.36-4.262zm19.842 5.915c-.072-2.148 3.347-3.244 5.71-2.033v4.027c-2.61 1.082-5.575.124-5.71-1.994zm5.71 4.077h3.334v-5.517c0-1.819.115-3.01-.645-4.186-.764-1.177-2.279-1.64-3.348-1.64h-6.108c-.573.022-.436-.662-.39-.8 1.447-5.438 2.614-7.037 4.588-6.877.85.114 1.375.137 1.767.617.322.389.438.435 1.056-.503.387-.639.688-1.142.918-1.53C81.47.58 82 .1 81.218.008c-9.386-.206-9.521 3.496-12.733 9.573-.345.571-.714.549-1.79.549H63.55c-4.244 0-6.447 3.312-6.698 5.163-.207 1.119-.323 2.078.228 3.268.435.89 1.491 2.101 3.052 2.786.415.16.666-.136.688-.159.461-.413 1.883-1.669 2.296-1.988.252-.23-.048-.366-.23-.388-2.639-.32-3.603-1.029-4.061-2.767-.138-1.3.48-4.202 5.208-4.249 1.905.047 3.44-.18 2.73 1.509-2.57 6.352-3.167 7.518-5.851 12.657-1.63 2.377-3.646 2.72-6.954 1.69-.857-.268-1.125.324-1.243.579-.176.375-.484 1.065-.6 1.31-.184.372-.036.501.231.499 4.613-.047 9.184-.925 12.695-4.9 3.282-4.182 4.04-7.54 6.195-11.79.345-.753.853-1.439 1.728-1.439h5.177c1.659 0 1.951.686 1.951 1.577-1.194-.365-2.202-.527-3.622-.365-3.054.32-4.982 1.552-5.117 4.295.021 2.057 2.017 4.181 5.526 4.112 1.457.068 2.438-.136 3.213-.939v.79zm7.96 0v-4.834c.43 0 .757.094.977.279.217.186.478.602.776 1.254l1.317 3.301h3.154l-1.474-3.159a7.903 7.903 0 01-.115-.22c-.643-1.36-1.429-2.167-2.36-2.425.646-.238 1.137-.873 1.481-1.898.252-.762.487-1.22.702-1.375.218-.147.716-.222 1.494-.222l-.011-1.965a22.845 22.845 0 00-1.165-.053c-.73 0-1.316.156-1.764.464-.447.309-.86 1.012-1.237 2.113-.288.826-.533 1.361-.735 1.607-.204.245-.55.396-1.04.452v-4.55h-2.97v11.231h2.97zm16.721-7.883l-2.911.51c-.099-.575-.326-1.007-.675-1.297-.351-.292-.806-.438-1.366-.438-.743 0-1.336.255-1.779.765-.444.51-.665 1.364-.665 2.559 0 1.333.223 2.272.672 2.817.45.551 1.052.826 1.806.826.564 0 1.027-.163 1.386-.486.36-.325.614-.883.761-1.675l2.914.483c-.302 1.351-.882 2.37-1.74 3.06-.856.69-2.007 1.034-3.448 1.034-1.638 0-2.942-.517-3.917-1.55-.973-1.035-1.461-2.467-1.461-4.296 0-1.85.49-3.292 1.466-4.323.979-1.031 2.302-1.546 3.967-1.546 1.366 0 2.448.293 3.255.88.805.585 1.384 1.476 1.735 2.677zM43.743 26.58h1.463l.762 1.315.738-1.315h1.45L46.82 28.65l1.464 2.205h-1.495l-.848-1.373-.851 1.373h-1.482l1.484-2.227-1.348-2.047zm-4.113 2.643l-.47-1.536-.469 1.536h.939zm.28.929h-1.502l-.214.702h-1.355l1.613-4.274h1.454l1.608 4.274h-1.389l-.214-.702zm-8.17-3.572h3.282v.92H33.07v.741h1.67v.865h-1.67v1.748h-1.332v-4.274zm-5.424 1.728h.564c.061 0 .179-.018.353-.057a.36.36 0 00.218-.133.387.387 0 00.084-.247c0-.138-.043-.243-.134-.316-.087-.073-.254-.111-.498-.111h-.587v.864zm-1.332 2.546v-4.274H27.2c.41 0 .725.035.943.104.217.07.391.2.525.388.134.19.2.422.2.694 0 .235-.053.441-.152.613a1.213 1.213 0 01-.421.418c-.114.069-.27.125-.47.17.16.052.275.105.348.158.049.036.12.11.212.225.093.117.155.205.186.267l.646 1.237h-1.5l-.714-1.306c-.088-.17-.17-.279-.24-.33a.568.568 0 00-.329-.1h-.117v1.736h-1.332zm-6.452-4.274h3.557v.914h-2.225v.678h2.061v.872h-2.061v.839h2.288v.971h-3.62v-4.274zm-6.732 0h4.037v1.056h-1.355v3.218h-1.325v-3.218H11.8v-1.056zm-6.788 0h1.242l1.615 2.363V26.58H9.12v4.274H7.87l-1.606-2.35v2.35h-1.25v-4.274zm-4.39 0h1.333v4.274H.623v-4.274z" fill="#09ABB0"/></svg>