<svg fill="none" xmlns="http://www.w3.org/2000/svg" viewBox="0 0 128 18"><path d="M127.475 2.537a1.585 1.585 0 00-1.582-1.59c-.867 0-1.582.718-1.582 1.59 0 .871.715 1.588 1.582 1.588.869 0 1.582-.717 1.582-1.588zm-3.432 0c0-1.02.835-1.859 1.85-1.859 1.021 0 1.85.833 1.85 1.858a1.863 1.863 0 01-1.849 1.859 1.863 1.863 0 01-1.851-1.859z" fill="#7F7F7F"/><path fill-rule="evenodd" clip-rule="evenodd" d="M125.839 1.171c.048.456.413.197.571.07.057-.046.128-.13.166-.154.025-.015.062-.004.077.027a.298.298 0 01-.007.187 1.294 1.294 0 01-.124.247 3.95 3.95 0 01-.265.382c-.16.2-.364.36-.531.557-.258.302-.404.767-.324 1.16.021.101.068.228.163.281.568.317.985-1.04.792-1.441-.026-.052-.079-.145-.15-.132-.356.067-.521 1.229-.299 1.313-.011.138-.228.222-.291-.032a1.044 1.044 0 01-.022-.274c.011-.387.319-.973.672-1.151.161-.083.387-.082.477.103.317.658-.539 1.873-1.279 1.762-.357-.054-.487-.399-.459-.726a1.52 1.52 0 01.289-.743c.312-.44.803-.57 1.041-.915 0 0 .01-.014.011-.021.004-.01-.009-.024-.025-.01a.683.683 0 01-.259.106c-.193.022-.297-.243-.33-.39-.007-.032-.009-.057-.039-.016-.094.123-.167.81-.262.848l-.374.149s-.016.008-.022-.015c-.043-.16.343-.714.45-.9.015-.024.103-.197.119-.21a.651.651 0 01.234-.062z" fill="#7F7F7F"/><path d="M13.886 14.206H8.738L5.584 8.955l-1.024 1.07v4.181H.256V.994H4.56v4.264L8.25.994h5.048L8.565 5.922l5.321 8.284zm5.763-4.901c0-.605-.141-1.152-.424-1.638-.283-.485-.719-.729-1.314-.729-.532 0-.934.244-1.204.733a3.334 3.334 0 00-.405 1.634c0 .641.144 1.248.433 1.815.285.57.727.855 1.32.855.571 0 .98-.276 1.225-.83a4.49 4.49 0 00.369-1.84zm2.985 2.976c-1.017 1.515-2.76 2.224-4.563 2.224-1.858 0-3.649-.703-4.687-2.278-.953-1.445-1.074-3.8-.272-5.342.617-1.187 1.749-2.044 3.046-2.393a6.709 6.709 0 014.347.257c1.282.529 2.237 1.618 2.652 2.913.454 1.414.292 3.405-.523 4.62zm33.353-3.946c-.135-.629-.356-1.065-.662-1.308-.308-.247-.697-.368-1.173-.368-.461 0-.826.118-1.096.357-.269.236-.473.676-.613 1.32h3.544zm3.681 1.866H52.48c0 .298.05.559.153.786.309.692.868 1.159 1.67 1.159.588 0 1.267-.238 1.393-.88h3.682c-.14.91-.718 1.715-1.464 2.243-.751.53-1.674.827-2.586.931-1.169.145-2.521.105-3.604-.349-1.259-.525-2.2-1.497-2.711-2.752a5.4 5.4 0 01-.021-3.81c.473-1.28 1.446-2.268 2.708-2.792 1.536-.635 3.685-.592 5.17.151 1.317.657 2.215 1.778 2.589 3.192.184.712.254 1.393.21 2.121zM69.98 12.3c-.707 1.354-2.013 2.2-3.588 2.2-1.13 0-1.875-.37-2.639-1.157v4.143h-3.835V4.61h3.396v1.436c.736-1.474 2.56-2.01 4.03-1.638 1.603.401 2.682 1.755 3.066 3.276.36 1.414.235 3.352-.43 4.615zm-3.124-3.13c0-.408-.134-.852-.406-1.33-.272-.479-.666-.718-1.18-.718-.51 0-.903.224-1.178.674-.275.448-.413.904-.413 1.373 0 .575.107 1.112.321 1.61.217.497.639.745 1.27.745.618 0 1.034-.258 1.257-.773.201-.498.33-1.042.33-1.582zm12.002 4.926c-1.49.524-3.516.604-5-.016-.934-.39-1.762-1.049-2.285-1.925a5.386 5.386 0 01-.776-2.797c0-.658.137-1.303.368-1.916.536-1.38 1.463-2.17 2.801-2.718 1.532-.628 3.807-.605 5.26.19 1.387.758 2.112 1.8 2.303 3.338h-3.925c-.069-.473-.201-.765-.395-1.014-.55-.707-1.794-.362-2.191.336-.507.89-.59 2.204-.27 3.18.211.643.906 1.188 1.582 1.188.957 0 1.156-.647 1.406-1.453h3.793c-.04 1.61-.998 3.018-2.671 3.607zm9.666-3.663c0-.178-.016-.325-.048-.437-.263.147-.674.275-1.232.383-.426.078-.878.174-1.258.383-.54.268-.51 1.035-.039 1.346.546.33 1.46.302 1.92-.16.436-.418.657-.921.657-1.515zm4.267 3.773h-3.925l-.15-1.016c-.286.371-.925.677-1.571.927a5.424 5.424 0 01-.97.28c-.33.058-.682.089-1.05.089a4.595 4.595 0 01-1.816-.35 2.567 2.567 0 01-1.25-1.09 3.796 3.796 0 01-.384-1.646c0-.707.327-1.289.777-1.811.257-.298.508-.465.962-.64.214-.083.427-.155.635-.215.206-.06.402-.116.587-.144l1.608-.243c.683-.103 1.343-.192 1.634-.289.18-.06.391-.254.496-.377.104-.123.089-.252.089-.384 0-.18-.087-.331-.263-.454-.176-.123-.426-.184-.751-.184-.391 0-.877.058-1.112.175-.236.116-.388.35-.46.697h-3.636c.122-.63.1-.997.278-1.382.177-.383.456-.712.838-.985.382-.274.906-.486 1.578-.627.324-.068.71-.115 1.148-.15.442-.036.93-.055 1.474-.055 1.32 0 2.31.157 2.97.472.659.315 1.088.568 1.289 1.04.199.47.334 1.082.396 1.831v5.073c0 .522.194.909.58 1.16v.298zm10.667 0h-3.786V10.62h-2.805v3.586h-3.75l-.004-9.445.004-.144h3.75V7.83h2.762V4.617h3.829l-.003 9.417.003.172zm10.523-6.763h-3.261v6.763h-3.799V7.443h-3.288V4.617h10.348v2.826zm12.3 3.694c0 .843-.4 1.583-1.041 2.11-.845.702-2.012.96-3.084.96h-5.862V7.442h-2.19V4.617h5.845v3.365h1.999c1.113 0 2.347.219 3.229.953.663.552 1.104 1.324 1.104 2.202zm-3.775.01c0-.606-.334-.86-.908-.929-.117 0-.347-.01-.688-.024a26.745 26.745 0 00-.961-.022v1.852l.949.019c.259.005.473-.006.637-.019.584-.043.971-.202.971-.877zm-91.75 3.06h-1.84L26.903 7.8l.31 2.51v3.896h-3.358V4.561h4.307l1.672 5.328 1.672-5.328h4.308v9.645h-3.359v-3.895l.31-2.511-2.01 6.406zm12.577 0h-1.84L39.48 7.8l.31 2.51v3.896h-3.358V4.561h4.307l1.672 5.328 1.672-5.328h4.308v9.645h-3.359v-3.895l.31-2.511-2.01 6.406z" fill="#333"/></svg>