<svg fill="none" xmlns="http://www.w3.org/2000/svg" viewBox="0 0 142 46"><g clip-path="url(#clip0)" fill="#0657A8"><path d="M4.317 13.509l24.06-8.965-7.842 31.675-9.14 2.818 6.548-26.285-14.806 5.539 1.18-4.782z"/><path d="M16 14.892L9.91 39.507 5.28 40.91l6.12-24.304 4.6-1.714z"/></g><path d="M49.002 18.276h-8.23v10.91h1.856v-9.269h4.518v9.269h1.856v-10.91zM54.588 29.345c1.805 0 3.046-.932 3.368-2.354l-1.704-.202c-.247.692-.852 1.054-1.639 1.054-1.18 0-1.961-.82-1.977-2.221h5.396v-.591c0-2.871-1.634-4.134-3.54-4.134-2.219 0-3.666 1.72-3.666 4.246 0 2.567 1.427 4.202 3.762 4.202zm-1.947-5.023c.056-1.044.787-1.923 1.876-1.923 1.05 0 1.755.81 1.765 1.923h-3.64zM59.576 32.254h1.826v-4.357h.075c.288.596.888 1.432 2.22 1.432 1.825 0 3.191-1.528 3.191-4.224 0-2.727-1.407-4.208-3.197-4.208-1.366 0-1.936.869-2.214 1.46h-.105v-1.353h-1.796v11.25zm1.79-7.16c0-1.587.646-2.615 1.82-2.615 1.216 0 1.841 1.092 1.841 2.616 0 1.534-.635 2.652-1.84 2.652-1.165 0-1.82-1.065-1.82-2.652zM68.451 29.186h3.752c1.815 0 2.854-.869 2.854-2.222 0-1.145-.842-1.944-2.057-2.056 1.034-.202 1.679-.783 1.679-1.704 0-1.38-1.145-2.2-2.975-2.2H68.45v8.182zm1.71-1.518v-2.03h2.042c.67 0 1.08.41 1.08 1.087 0 .586-.41.942-1.08.942h-2.042zm0-3.276v-1.843h1.543c.761 0 1.225.34 1.225.9 0 .586-.449.943-1.19.943h-1.578zM78.323 23.667v-2.663h-1.76v8.182h3.52c1.972 0 3.107-1.151 3.112-2.76-.005-1.65-1.14-2.759-3.112-2.759h-1.76zm5.835 5.519h1.825v-8.182h-1.825v8.182zm-5.835-3.937h1.76c.792 0 1.362.496 1.362 1.204 0 .677-.57 1.15-1.362 1.15h-1.76V25.25zM89.625 26.576v-5.572h-1.76v8.182h1.881l3.091-5.578v5.578h1.765v-8.182h-1.876l-3.1 5.572zm2.602-8.385c-.005.522-.287.986-.998.986-.721 0-.993-.474-.993-.986h-1.357c-.005 1.247.908 2.088 2.35 2.088 1.452 0 2.365-.841 2.365-2.088h-1.367zM100 29.186h1.825V26.1h.892l2.123 3.085h2.209l-2.9-4.166 2.87-4.016h-2.199l-2.33 3.302h-.665v-3.302h-1.826v8.182zM110.313 29.35c1.215 0 1.941-.601 2.274-1.288h.06v1.124h1.755V23.71c0-2.163-1.669-2.813-3.146-2.813-1.629 0-2.88.767-3.283 2.259l1.704.256c.182-.56.696-1.04 1.589-1.04.847 0 1.311.459 1.311 1.263v.032c0 .554-.55.58-1.916.735-1.503.17-2.94.645-2.94 2.488 0 1.608 1.114 2.46 2.592 2.46zm.474-1.416c-.762 0-1.306-.368-1.306-1.076 0-.74.61-1.05 1.427-1.172.479-.07 1.437-.197 1.674-.4v.965c0 .91-.696 1.683-1.795 1.683zM117.998 21.004h-1.76v8.182h1.76v-3.308h3v3.308h1.755v-8.182h-1.755v3.292h-3v-3.292zM126.828 29.35c1.216 0 1.942-.601 2.275-1.288h.06v1.124h1.755V23.71c0-2.163-1.669-2.813-3.147-2.813-1.628 0-2.879.767-3.282 2.259l1.704.256c.182-.56.696-1.04 1.589-1.04.847 0 1.311.459 1.311 1.263v.032c0 .554-.55.58-1.917.735-1.502.17-2.939.645-2.939 2.488 0 1.608 1.114 2.46 2.591 2.46zm.474-1.416c-.761 0-1.306-.368-1.306-1.076 0-.74.611-1.05 1.427-1.172.48-.07 1.438-.197 1.675-.4v.965c0 .91-.696 1.683-1.796 1.683zM132.219 29.186h.565c1.664 0 2.415-1.236 2.536-3.963l.121-2.637h2.224v6.6h1.765v-8.182h-5.648l-.136 3.622c-.086 2.296-.368 2.972-1.17 2.972h-.267l.01 1.588z" fill="#0657A8"/><defs><clipPath id="clip0"><path fill="#fff" transform="translate(3.043 4.543)" d="M0 0h25.357v36.429H0z"/></clipPath></defs></svg>