<svg fill="none" xmlns="http://www.w3.org/2000/svg" viewBox="0 0 142 35"><g clip-path="url(#clip0)"><path d="M106.5.614H0V34.9h106.5V.614z" fill="url(#paint0_linear)"/><path d="M142 .614h-33.06V34.9H142V.614z" fill="#C40000"/><path d="M89.957 8.819c-3.071 0-5.602 2.334-5.602 5.584 0 2.235 1.194 4.2 2.94 5.21l-3.19 7.222h4.07l2.697-6.502h1.526v6.502h3.66V8.819h-6.101zm0 3.324h2.44v4.66h-2.44c-1.092 0-1.941-1.022-1.941-2.334 0-1.311.849-2.326 1.94-2.326zM78.6 8.819l-6.185 10.508V8.82h-3.661v18.016h3.175l6.123-10.406v10.406h3.66V8.819H78.6zM16.411 12.142h-2.44v4.66h2.44c1.092 0 1.941-1.018 1.941-2.33 0-1.31-.849-2.33-1.94-2.33zm0-3.323c3.071 0 5.602 2.334 5.602 5.585 0 3.25-2.531 5.93-5.602 5.93h-2.44v6.5H10.31V8.82h6.101zM33.794 17.838c0-1.106-.113-2.096-.138-2.873-.06-1.79-1.355-3.233-3.03-3.233-1.675 0-2.979 1.443-3.037 3.233-.026.777-.139 1.767-.139 2.873 0 1.106.113 2.104.139 2.88.06 1.79 1.362 3.233 3.037 3.233 1.675 0 2.97-1.443 3.03-3.233.025-.776.138-1.774.138-2.88zm-3.175 9.518c-3.774 0-6.83-3.242-6.83-7.236v-4.564c0-3.995 3.056-7.229 6.83-7.229 3.773 0 6.836 3.234 6.836 7.229v4.564c0 3.994-3.063 7.236-6.836 7.236zM46.781 8.327c-3.773 0-6.858 2.62-6.83 7.229.01 1.521 0 4.564 0 4.564 0 4.731 3.057 7.236 6.83 7.236 1.614 0 3.468-.327 5.041-1.005l-.804-3.361c-1.518.6-3.336.96-4.23.96-1.675 0-2.977-1.438-3.036-3.228-.026-.777-.14-1.778-.14-2.884 0-1.106.114-2.093.14-2.87.058-1.79 1.361-3.236 3.036-3.236.962 0 2.848.299 4.292.888l.777-3.236c-1.459-.748-3.287-1.057-5.076-1.057zM61.011 8.327c-3.773 0-6.858 2.62-6.83 7.229.01 1.521 0 4.564 0 4.564 0 4.731 3.057 7.236 6.83 7.236 1.614 0 3.468-.327 5.041-1.005l-.804-3.361c-1.518.6-3.336.96-4.23.96-1.675 0-2.977-1.438-3.037-3.228-.025-.777-.138-1.778-.138-2.884 0-1.106.113-2.093.138-2.87.059-1.79 1.362-3.236 3.037-3.236.962 0 2.848.299 4.292.888l.777-3.236c-1.459-.748-3.287-1.057-5.076-1.057zM133.348 18.293v3.779h-7.62v-3.78h7.62zm.054-9.61l-7.638 9.058h4.709l7.638-9.059h-4.709zm.533 0v.146l.122-.147h-.122zm4.004.98l-4.004 4.75v11.506h4.004V9.663zM119.003 8.688v3.805c.792.151 1.392.884 1.392 1.767 0 1.454-.967 2.431-2.335 3.604l-5.231 4.486v3.364h3.045l6.512-6.03c1.429-1.323 2.557-3.228 2.557-5.747 0-3.503-2.648-5.204-5.94-5.249zm-.505.012c-2.966.189-5.352 2.63-5.663 5.73h4.171a1.917 1.917 0 01-.006-.17c0-.92.655-1.674 1.498-1.78V8.7zm2.363 13.004l-4.332 4.01h8.287v-4.01h-3.955z" fill="#fff"/></g><defs><linearGradient id="paint0_linear" x1="106.456" y1="34.705" x2="106.456" y2=".806" gradientUnits="userSpaceOnUse"><stop stop-color="#0029A6"/><stop offset="1" stop-color="#0069E4"/></linearGradient><clipPath id="clip0"><path fill="#fff" transform="translate(0 .614)" d="M0 0h142v34.286H0z"/></clipPath></defs></svg>