<svg fill="none" xmlns="http://www.w3.org/2000/svg" viewBox="0 0 114 22"><path fill-rule="evenodd" clip-rule="evenodd" d="M5.89 9.134V1.482h.614c.46 0 1.229-.082 1.229 2.21v3.191c0 2.292-.768 2.25-1.229 2.25H5.89zM1.167 18.3H.015v.655h8.37c2.036 0 4.147-.779 4.147-4.297 0-2.414-.806-4.706-3.955-5.033v-.287c1.536-.122 3.687-.9 3.687-4.296 0-3.846-2.804-4.255-3.725-4.255H.015v.695h1.152V18.3zm4.723 0V9.789h.614c.46 0 1.229-.041 1.229 2.25v4.009c0 2.292-.768 2.252-1.229 2.252H5.89zM14.49 1.482H13.3V.786h10.597v6.506h-.384c-.5-5.77-3.187-5.81-4.031-5.81h-.308V9.46h.23c1.536 0 2.15-2.046 2.074-3.887h.422v8.388h-.422c.077-1.841-.538-3.846-2.074-3.846h-.23v8.183c3.226.082 4.34-3.11 4.608-6.342h.422v6.997H13.3V18.3h1.19V1.482zM29.887 1.482V18.3h-3.11c1.382-2.169 1.536-5.32 1.536-9.82V2.955c0-1.433.423-1.474.768-1.474h.806zm-3.57-.695v.695h.614c.384 0 .921.082.921 1.678v5.32c0 7.365-.96 9.82-2.457 9.82h-.23v3.64h.384c.076-2.699.998-2.985 3.033-2.985h4.07c2.035 0 2.957.286 3.033 2.986h.384V18.3H34.61V1.482h1.152V.786h-9.445z" fill="#333"/><path fill-rule="evenodd" clip-rule="evenodd" d="M40.868 2.75c0-1.145.346-1.636.922-1.636.537 0 .921.491.921 1.637v14.322c0 1.104-.384 1.595-.921 1.595-.576 0-.922-.492-.922-1.595V2.75zm-4.991 7.161c0 4.501 1.996 9.451 5.912 9.451s5.874-4.95 5.874-9.45c0-4.543-1.958-9.494-5.874-9.494-3.916 0-5.912 4.951-5.912 9.493zM49.738 2.873h-.039v13.175c0 2.047.653 2.252 1.19 2.252h.307v.655h-3.148V18.3c.499.04 1.19-.247 1.19-2.252V1.482h-1.19V.786h5.913l1.497 7.407h.077L57.071.786h5.913v.696h-1.152V18.3h1.152v.655h-7.027V18.3h1.152V2.956h-.077l-3.34 15.999h-.653L49.738 2.873zM68.512 2.75c0-1.145.384-1.636.921-1.636.576 0 .921.491.921 1.637v14.322c0 1.104-.344 1.595-.92 1.595-.538 0-.922-.492-.922-1.595V2.75zM63.56 9.912c0 4.501 1.958 9.451 5.874 9.451 3.916 0 5.913-4.95 5.913-9.45 0-4.543-1.997-9.494-5.913-9.494-3.916 0-5.874 4.951-5.874 9.493zM86.826 6.76h-.422c-.385-2.945-1.728-5.237-3.264-5.237-1.69 0-1.766 2.66-1.766 3.928v8.388c0 .818.038 3.928 1.958 3.928 2.15 0 2.995-3.15 3.302-5.565l.384.123c-.346 3.029-1.42 7.037-4.723 7.037-3.955 0-5.875-5.155-5.875-9.492 0-5.197 2.382-9.452 5.875-9.452.692 0 1.727.245 2.688 1.187L86.25.009h.384l.192 6.752zM91.204 1.482c-2.188.205-2.956 3.847-3.11 5.81h-.384V.788h11.71v6.506h-.422c-.153-1.964-.922-5.606-3.073-5.81V18.3h1.383v.655h-7.526V18.3h1.42V1.482h.002zM106.103 13.471h.076l1.766-10.761V1.482h-.576V.787h6.45v.695h-1.151V18.3h1.151v.655h-6.45V18.3h.576V5.574h-.076l-1.766 10.72V18.3h.576v.655h-6.452V18.3h1.153V1.482h-1.153V.787h6.452v.695h-.576v11.99z" fill="#333"/></svg>