<svg fill="none" xmlns="http://www.w3.org/2000/svg" viewBox="0 0 403 251"><g clip-path="url(#clip0)"><path fill="#F3F4F4" d="M0 0h403v286H0z"/><path d="M187 34.5V19a4 4 0 014-4h21a4 4 0 014 4v15.5M187 46v4a4 4 0 004 4h5m20-8v4a4 4 0 01-4 4h-4" stroke="#B6BFC8" stroke-width="2" stroke-linecap="round" stroke-linejoin="round"/><rect x="177" y="38" width="49" height="3" rx="1.5" fill="#B6BFC8"/><rect x="193" y="44" width="17" height="3" rx="1.5" fill="#B6BFC8"/><circle cx="102.5" cy="30.5" r="2.5" fill="#B6BFC8"/><circle cx="110.5" cy="30.5" r="2.5" fill="#B6BFC8"/><circle cx="118.5" cy="30.5" r="2.5" fill="#B6BFC8"/><circle cx="126.5" cy="30.5" r="2.5" fill="#B6BFC8"/><rect x="276" y="27" width="27" height="3" rx="1.5" fill="#B6BFC8"/><rect x="100" y="72" width="21" height="5" rx="2" fill="#B6BFC8"/><rect x="135" y="72" width="30" height="5" rx="2" fill="#B6BFC8"/><rect x="100" y="115" width="116" height="5" rx="2" fill="#B6BFC8"/><rect x="100" y="126" width="116" height="5" rx="2" fill="#B6BFC8"/><rect x="100" y="137" width="116" height="5" rx="2" fill="#B6BFC8"/><rect x="100" y="148" width="77" height="5" rx="2" fill="#B6BFC8"/><rect x="179" y="72" width="20" height="5" rx="2" fill="#B6BFC8"/><rect x="213" y="72" width="18" height="5" rx="2" fill="#B6BFC8"/><rect x="245" y="72" width="30" height="5" rx="2" fill="#B6BFC8"/><rect x="289" y="72" width="14" height="5" rx="2" fill="#B6BFC8"/><rect x="286" y="32" width="17" height="3" rx="1.5" fill="#97B4FF"/><circle cx="277.5" cy="131.5" r="32.5" fill="#97B4FF"/><rect x="100" y="223" width="39" height="5" rx="2" fill="#B6BFC8"/><rect x="100" y="234" width="28" height="5" rx="2" fill="#B6BFC8"/><circle cx="109.5" cy="207.5" r="9.5" fill="#97B4FF"/><rect x="154" y="223" width="39" height="5" rx="2" fill="#B6BFC8"/><rect x="154" y="234" width="28" height="5" rx="2" fill="#B6BFC8"/><circle cx="163.5" cy="207.5" r="9.5" fill="#97B4FF"/><rect x="208" y="223" width="39" height="5" rx="2" fill="#B6BFC8"/><rect x="208" y="234" width="28" height="5" rx="2" fill="#B6BFC8"/><circle cx="217.5" cy="207.5" r="9.5" fill="#97B4FF"/><rect x="262" y="223" width="39" height="5" rx="2" fill="#B6BFC8"/><rect x="262" y="234" width="28" height="5" rx="2" fill="#B6BFC8"/><circle cx="271.5" cy="207.5" r="9.5" fill="#97B4FF"/><path opacity=".35" d="M275.5 0H403v286H155L275.5 0z" fill="#fff"/></g><defs><clipPath id="clip0"><rect width="403" height="251" rx="10" fill="#fff"/></clipPath></defs></svg>