<svg width="66" height="63" viewBox="0 0 66 63" fill="none" xmlns="http://www.w3.org/2000/svg">
<path d="M20.4765 25.1993C22.5777 25.1993 23.7113 27.664 22.3438 29.2593L4.32673 50.2792C2.84076 52.0129 -6.06173e-08 50.962 0 48.6787L5.58032e-07 27.6587C5.94092e-07 26.3005 1.10112 25.1993 2.45941 25.1993H20.4765Z" fill="#154AD0"/>
<path d="M20.4765 25.1993C22.5777 25.1993 23.7113 27.664 22.3438 29.2593L4.32673 50.2792C2.84076 52.0129 -6.06173e-08 50.962 0 48.6787L5.58032e-07 27.6587C5.94092e-07 26.3005 1.10112 25.1993 2.45941 25.1993H20.4765Z" fill="url(#paint0_linear)" fill-opacity="0.2"/>
<g filter="url(#filter0_i)">
<path d="M0 7.98348C0 3.9086 3.30334 0.605255 7.37822 0.605255H46.1139C50.1888 0.605255 53.4921 3.9086 53.4921 7.98348V31.9627C53.4921 36.0376 50.1888 39.3409 46.1139 39.3409H7.37822C3.30334 39.3409 0 36.0376 0 31.9627V7.98348Z" fill="url(#paint1_linear)"/>
</g>
<path d="M14.1416 13.8246C14.1416 13.3152 14.5545 12.9023 15.0639 12.9023H38.4283C38.9376 12.9023 39.3505 13.3152 39.3505 13.8246C39.3505 14.3339 38.9376 14.7468 38.4283 14.7468H15.0639C14.5545 14.7468 14.1416 14.3339 14.1416 13.8246Z" fill="#4EBFFF"/>
<path d="M14.1416 19.9731C14.1416 19.4638 14.5545 19.0508 15.0639 19.0508H38.4283C38.9376 19.0508 39.3505 19.4638 39.3505 19.9731C39.3505 20.4825 38.9376 20.8954 38.4283 20.8954H15.0639C14.5545 20.8954 14.1416 20.4825 14.1416 19.9731Z" fill="#4EBFFF"/>
<path d="M14.1416 26.7365C14.1416 26.2271 14.5545 25.8142 15.0639 25.8142H38.4283C38.9376 25.8142 39.3505 26.2271 39.3505 26.7365C39.3505 27.2458 38.9376 27.6587 38.4283 27.6587H15.0639C14.5545 27.6587 14.1416 27.2458 14.1416 26.7365Z" fill="#4EBFFF"/>
<path d="M53.6849 46.6599C52.4212 46.6599 51.7394 48.1422 52.5618 49.1017L63.3978 61.7437C64.2915 62.7863 66 62.1543 66 60.781L66 48.1391C66 47.3222 65.3378 46.6599 64.5208 46.6599H53.6849Z" fill="url(#paint2_linear)"/>
<g filter="url(#filter1_i)">
<path d="M66 36.3059C66 33.8551 64.0133 31.8684 61.5625 31.8684H38.2659C35.8151 31.8684 33.8284 33.8551 33.8284 36.3059V50.7276C33.8284 53.1784 35.8151 55.1651 38.2659 55.1651H61.5625C64.0133 55.1651 66 53.1784 66 50.7276V36.3059Z" fill="#154AD0"/>
<path d="M66 36.3059C66 33.8551 64.0133 31.8684 61.5625 31.8684H38.2659C35.8151 31.8684 33.8284 33.8551 33.8284 36.3059V50.7276C33.8284 53.1784 35.8151 55.1651 38.2659 55.1651H61.5625C64.0133 55.1651 66 53.1784 66 50.7276V36.3059Z" fill="url(#paint3_linear)" fill-opacity="0.2"/>
</g>
<path d="M57.4946 39.8188C57.4946 39.5125 57.2463 39.2641 56.9399 39.2641H42.888C42.5816 39.2641 42.3333 39.5125 42.3333 39.8188C42.3333 40.1252 42.5816 40.3735 42.888 40.3735H56.9399C57.2463 40.3735 57.4946 40.1252 57.4946 39.8188Z" fill="#4EBFFF" fill-opacity="0.5"/>
<path d="M57.4946 43.5168C57.4946 43.2104 57.2463 42.9621 56.9399 42.9621H42.888C42.5816 42.9621 42.3333 43.2104 42.3333 43.5168C42.3333 43.8231 42.5816 44.0715 42.888 44.0715H56.9399C57.2463 44.0715 57.4946 43.8231 57.4946 43.5168Z" fill="#4EBFFF" fill-opacity="0.5"/>
<path d="M57.4946 47.5844C57.4946 47.2781 57.2463 47.0297 56.9399 47.0297H42.888C42.5816 47.0297 42.3333 47.2781 42.3333 47.5844C42.3333 47.8907 42.5816 48.1391 42.888 48.1391H56.9399C57.2463 48.1391 57.4946 47.8907 57.4946 47.5844Z" fill="#4EBFFF" fill-opacity="0.5"/>
<defs>
<filter id="filter0_i" x="0" y="0.605255" width="53.4921" height="38.7357" filterUnits="userSpaceOnUse" color-interpolation-filters="sRGB">
<feFlood flood-opacity="0" result="BackgroundImageFix"/>
<feBlend mode="normal" in="SourceGraphic" in2="BackgroundImageFix" result="shape"/>
<feColorMatrix in="SourceAlpha" type="matrix" values="0 0 0 0 0 0 0 0 0 0 0 0 0 0 0 0 0 0 127 0" result="hardAlpha"/>
<feOffset dy="4"/>
<feComposite in2="hardAlpha" operator="arithmetic" k2="-1" k3="1"/>
<feColorMatrix type="matrix" values="0 0 0 0 0.380392 0 0 0 0 0.701961 0 0 0 0 1 0 0 0 1 0"/>
<feBlend mode="lighten" in2="shape" result="effect1_innerShadow"/>
</filter>
<filter id="filter1_i" x="33.8286" y="31.8684" width="32.1716" height="23.2967" filterUnits="userSpaceOnUse" color-interpolation-filters="sRGB">
<feFlood flood-opacity="0" result="BackgroundImageFix"/>
<feBlend mode="normal" in="SourceGraphic" in2="BackgroundImageFix" result="shape"/>
<feColorMatrix in="SourceAlpha" type="matrix" values="0 0 0 0 0 0 0 0 0 0 0 0 0 0 0 0 0 0 127 0" result="hardAlpha"/>
<feOffset dy="2"/>
<feComposite in2="hardAlpha" operator="arithmetic" k2="-1" k3="1"/>
<feColorMatrix type="matrix" values="0 0 0 0 0.380392 0 0 0 0 0.701961 0 0 0 0 1 0 0 0 0.5 0"/>
<feBlend mode="lighten" in2="shape" result="effect1_innerShadow"/>
</filter>
<linearGradient id="paint0_linear" x1="10.9421" y1="51.143" x2="10.9421" y2="25.1993" gradientUnits="userSpaceOnUse">
<stop stop-color="white" stop-opacity="0"/>
<stop offset="1" stop-color="white"/>
</linearGradient>
<linearGradient id="paint1_linear" x1="25.5143" y1="39.3409" x2="25.5143" y2="0.605254" gradientUnits="userSpaceOnUse">
<stop stop-color="#3C70F4"/>
<stop offset="1" stop-color="#638DF6"/>
</linearGradient>
<linearGradient id="paint2_linear" x1="59.4191" y1="62.2632" x2="59.4191" y2="46.6599" gradientUnits="userSpaceOnUse">
<stop stop-color="#3C70F4"/>
<stop offset="1" stop-color="#638DF6"/>
</linearGradient>
<linearGradient id="paint3_linear" x1="50.655" y1="55.1651" x2="50.655" y2="31.8684" gradientUnits="userSpaceOnUse">
<stop stop-color="white" stop-opacity="0"/>
<stop offset="1" stop-color="white"/>
</linearGradient>
</defs>
</svg>
