<svg fill="none" xmlns="http://www.w3.org/2000/svg" viewBox="0 0 100 100"><path d="M47.88 52.53c19.108 0 31.111-10.007 31.031-25.963C78.991 11.374 67.39 0 47.88 0H18.344a2.576 2.576 0 00-2.58 2.572v33.44a2.576 2.576 0 01-2.58 2.572H6.661a2.576 2.576 0 00-2.58 2.572v8.803a2.576 2.576 0 002.58 2.572h6.521a2.576 2.576 0 012.58 2.572v.16a2.576 2.576 0 01-2.58 2.573H6.662a2.576 2.576 0 00-2.58 2.572v8.802a2.576 2.576 0 002.58 2.573h6.521a2.576 2.576 0 012.58 2.572v5.386a2.576 2.576 0 002.581 2.572h12.102a2.576 2.576 0 002.58-2.572v-5.386a2.576 2.576 0 012.58-2.572H48.39a2.576 2.576 0 002.58-2.573v-8.802a2.576 2.576 0 00-2.58-2.572H35.606a2.576 2.576 0 01-2.58-2.572v-.161a2.576 2.576 0 012.58-2.572H47.88zM35.605 38.585a2.576 2.576 0 01-2.58-2.572V16.72a2.576 2.576 0 012.58-2.572H47.88c9.194 0 13.69 5.546 13.65 12.62.04 7.234-4.376 11.816-14.131 11.816H35.606z" fill="#5381F6"/><path d="M63.79 94.241c2.594 4.493 9.078 4.493 11.672 0l17.83-30.89c2.594-4.492-.648-10.109-5.835-10.109H51.796c-5.188 0-8.43 5.617-5.836 10.11L63.79 94.24z" fill="url(#paint0_linear)"/><path fill-rule="evenodd" clip-rule="evenodd" d="M43.89 64.546c-3.512-6.084.877-13.693 7.905-13.693h35.662c7.028 0 11.418 7.609 7.905 13.693l-17.83 30.89c-3.514 6.086-12.298 6.086-15.811 0l-17.83-30.89zm7.905-8.914c-3.346 0-5.44 3.624-3.766 6.526l17.831 30.89c1.674 2.9 5.858 2.9 7.532 0l17.831-30.89c1.675-2.902-.42-6.526-3.766-6.526H51.795z" fill="url(#paint1_linear)"/><defs><linearGradient id="paint0_linear" x1="69.626" y1="53.242" x2="69.626" y2="97.611" gradientUnits="userSpaceOnUse"><stop stop-color="#FB5A80"/><stop offset="1" stop-color="#F23965"/></linearGradient><linearGradient id="paint1_linear" x1="50.554" y1="58.051" x2="85.156" y2="96.031" gradientUnits="userSpaceOnUse"><stop stop-color="#EDF0F8"/><stop offset="1" stop-color="#D7DEEF"/></linearGradient></defs></svg>