<svg fill="none" xmlns="http://www.w3.org/2000/svg" viewBox="0 0 100 100"><path fill-rule="evenodd" clip-rule="evenodd" d="M18.274 13.495a2.538 2.538 0 012.538-2.538h24.873a2.538 2.538 0 012.538 2.538v9.49c11.123 5.45 18.782 16.882 18.782 30.104 0 18.503-15 33.503-33.502 33.503C15 86.592 0 71.592 0 53.089c0-13.02 7.426-24.304 18.274-29.85v-9.744zM33.502 31.77c-11.774 0-21.32 9.545-21.32 21.32s9.546 21.32 21.32 21.32c11.775 0 21.32-9.545 21.32-21.32s-9.545-21.32-21.32-21.32zm2.539-11.675a2.538 2.538 0 01-1.523 2.327v2.242a1.015 1.015 0 01-2.03 0V22.42a2.538 2.538 0 113.553-2.327z" fill="#5381F6"/><path fill-rule="evenodd" clip-rule="evenodd" d="M23.33 13.793c-.41-.502-.527-.999-.384-1.399.147-.41 2.152-5.699 2.152-5.699l22.068 1.1c1.296-.212 3.021.44 3.853 1.456l5.634 6.878c13.52 2.263 27.387 9.388 35.236 18.97 2.947 3.598 6.38 9.693 7.106 13.058 0 0-1.19 3.211-2.152 5.699-2.036 5.265-7.538 9.213-16.04 10.607-17.106 2.806-39.878-5.79-50.862-19.201-5.46-6.665-6.98-13.264-5.029-18.561.812-2.204 2.33-6.174 2.33-6.174l-3.912-6.734zm24.928 10.935c-10.886 1.786-14.044 10.152-7.054 18.686s21.481 14.005 32.367 12.22c10.886-1.787 14.045-10.152 7.055-18.687-6.99-8.534-21.482-14.005-32.368-12.219zm-4.585-8.847c.618.755.57 1.498-.026 1.918l1.33 1.624c.334.407.183.805-.335.89-.519.085-1.209-.175-1.542-.582l-1.33-1.625c-1.062-.147-2.172-.7-2.79-1.455-.832-1.016-.456-2.012.84-2.225 1.296-.212 3.021.439 3.853 1.455z" fill="#5381F6"/><path fill-rule="evenodd" clip-rule="evenodd" d="M31.392 5.399c.184.956 1.416 2.054 3.303 1.692 1.886-.362 2.624-1.839 2.44-2.795-.183-.956-1.415-2.054-3.302-1.692-1.886.363-2.624 1.839-2.44 2.795zm-2.492.479c.502 2.615 3.31 4.274 6.273 3.705 2.963-.568 4.957-3.15 4.455-5.765-.502-2.616-3.311-4.275-6.273-3.706-2.963.569-4.957 3.15-4.455 5.766z" fill="#5381F6"/><path fill-rule="evenodd" clip-rule="evenodd" d="M25.482 8.094c-.833-1.017-.457-2.012.84-2.225l22.995-3.772c1.296-.213 3.021.438 3.854 1.455l5.634 6.878C72.323 12.693 86.19 19.818 94.04 29.4c10.985 13.412 6.022 26.558-11.085 29.364-17.106 2.806-39.879-5.79-50.863-19.202-7.73-9.436-7.563-18.742-.826-24.406l-5.784-7.062zm24.927 10.935c-10.886 1.786-14.044 10.152-7.054 18.686s21.482 14.005 32.368 12.22c10.886-1.787 14.044-10.152 7.054-18.687-6.99-8.534-21.482-14.005-32.368-12.219zm-4.584-8.847c.618.755.57 1.498-.027 1.918l1.331 1.624c.333.407.183.805-.336.89-.518.085-1.208-.176-1.541-.582l-1.33-1.624c-1.062-.148-2.172-.702-2.79-1.456-.832-1.016-.456-2.012.84-2.225 1.295-.212 3.02.439 3.853 1.455z" fill="url(#paint0_linear)"/><defs><linearGradient id="paint0_linear" x1="35.999" y1="10.439" x2="75.06" y2="61.513" gradientUnits="userSpaceOnUse"><stop stop-color="#EDF0F8"/><stop offset="1" stop-color="#D7DEEF"/></linearGradient></defs></svg>