<svg fill="none" xmlns="http://www.w3.org/2000/svg" viewBox="0 0 98 89"><path d="M45.147 34.978a.2.2 0 00-.2-.2h-.497a.2.2 0 00-.111.033l-.806.538a.2.2 0 00-.089.166v.276a.2.2 0 00.31.167l.56-.37a.017.017 0 01.027.014v2.999c0 .11.09.2.2.2h.406a.2.2 0 00.2-.2v-3.623z" fill="url(#paint0_linear)"/><path d="M48.764 38.89c.96 0 1.54-.77 1.541-2.097.002-1.316-.585-2.07-1.54-2.07-.958 0-1.54.752-1.541 2.07-.004 1.322.579 2.094 1.54 2.096zm0-.706c-.438 0-.72-.463-.719-1.39.002-.914.283-1.374.72-1.374.433 0 .717.46.717 1.373.002.928-.282 1.391-.718 1.391z" fill="url(#paint1_linear)"/><path d="M52.376 38.89c.96 0 1.54-.77 1.541-2.097.002-1.316-.585-2.07-1.54-2.07-.958 0-1.54.752-1.541 2.07-.004 1.322.579 2.094 1.54 2.096zm0-.706c-.438 0-.72-.463-.719-1.39.002-.914.283-1.374.72-1.374.433 0 .717.46.717 1.373.001.928-.282 1.391-.718 1.391z" fill="url(#paint2_linear)"/><path d="M55.988 38.89c.96 0 1.54-.77 1.541-2.097.002-1.316-.585-2.07-1.54-2.07-.958 0-1.54.752-1.541 2.07-.004 1.322.579 2.094 1.54 2.096zm0-.706c-.438 0-.72-.463-.719-1.39.002-.914.283-1.374.72-1.374.433 0 .717.46.717 1.373.001.928-.282 1.391-.718 1.391z" fill="url(#paint3_linear)"/><path d="M60.814 38.89c.96 0 1.54-.77 1.541-2.097.002-1.316-.585-2.07-1.54-2.07-.958 0-1.54.752-1.541 2.07-.004 1.322.58 2.094 1.54 2.096zm0-.706c-.437 0-.72-.463-.719-1.39.002-.914.284-1.374.72-1.374.434 0 .717.46.717 1.373.002.928-.282 1.391-.718 1.391z" fill="url(#paint4_linear)"/><path d="M64.426 38.89c.96 0 1.54-.77 1.541-2.097.002-1.316-.585-2.07-1.54-2.07-.958 0-1.54.752-1.541 2.07-.004 1.322.579 2.094 1.54 2.096zm0-.706c-.437 0-.72-.463-.719-1.39.002-.914.283-1.374.72-1.374.433 0 .717.46.717 1.373.001.928-.282 1.391-.718 1.391z" fill="url(#paint5_linear)"/><path d="M66.542 38.6c0 .111.09.2.2.2h2.32a.2.2 0 00.2-.2v-.294a.2.2 0 00-.2-.2H67.68a.02.02 0 01-.014-.034l.551-.57c.784-.754.995-1.131.995-1.589 0-.697-.54-1.19-1.358-1.19-.732 0-1.254.42-1.337 1.095-.014.11.077.2.188.2h.365c.11 0 .197-.092.223-.2.066-.265.272-.421.555-.421.336 0 .585.22.585.573 0 .32-.186.54-.533.892l-1.297 1.267a.2.2 0 00-.06.143v.329z" fill="url(#paint6_linear)"/><path d="M70.318 38.852c.239 0 .445-.21.447-.471-.002-.258-.208-.468-.447-.468a.458.458 0 00-.447.468.459.459 0 00.447.471z" fill="url(#paint7_linear)"/><path d="M72.68 38.856c.86 0 1.478-.485 1.48-1.138a1.014 1.014 0 00-.813-.991.017.017 0 01-.014-.017c0-.007.006-.014.013-.016.392-.092.67-.452.673-.889-.002-.623-.569-1.082-1.34-1.082-.773 0-1.34.46-1.338 1.082-.001.435.274.798.673.889a.017.017 0 01.013.016.017.017 0 01-.014.017c-.459.086-.815.494-.813.992-.002.652.618 1.137 1.48 1.137zm0-.625c-.385 0-.642-.24-.642-.58 0-.347.27-.599.641-.599.369 0 .641.252.641.6 0 .341-.259.58-.64.58zm0-1.797c-.323 0-.552-.222-.552-.54 0-.315.225-.53.551-.53.324 0 .552.217.552.53 0 .318-.231.54-.552.54z" fill="url(#paint8_linear)"/><path d="M76.189 38.856c.85.004 1.429-.584 1.427-1.403.002-.754-.498-1.298-1.174-1.298-.416 0-.784.208-.957.559a.016.016 0 01-.03-.007c.007-.775.268-1.255.761-1.255.236 0 .418.109.512.298.042.084.12.151.214.151h.41c.12 0 .214-.105.181-.22-.155-.553-.641-.958-1.317-.958-.942 0-1.548.805-1.551 2.157-.002 1.473.74 1.972 1.524 1.976zm-.004-.668c-.373 0-.648-.316-.648-.71.001-.39.283-.708.653-.708.373 0 .645.308.643.707.002.403-.275.711-.648.711z" fill="url(#paint9_linear)"/><path d="M78.476 38.514a.2.2 0 00.18.287h.39a.2.2 0 00.18-.114l1.51-3.163a.2.2 0 00.019-.086v-.46a.2.2 0 00-.2-.2h-2.277a.2.2 0 00-.2.2v.295c0 .11.09.2.2.2h1.62a.022.022 0 01.02.032l-1.442 3.01z" fill="url(#paint10_linear)"/><path d="M81.123 38.852c.239 0 .446-.21.447-.471-.001-.258-.208-.468-.447-.468a.458.458 0 00-.447.468.459.459 0 00.447.471z" fill="url(#paint11_linear)"/><path d="M83.577 38.856c.85 0 1.427-.584 1.426-1.397.001-.77-.509-1.324-1.197-1.324-.331 0-.618.145-.754.34a.014.014 0 01-.011.006.014.014 0 01-.014-.015l.08-.812a.2.2 0 01.199-.18h1.286a.2.2 0 00.2-.2v-.296a.2.2 0 00-.2-.2h-1.949a.2.2 0 00-.199.183l-.15 1.758a.2.2 0 00.162.214l.413.078c.078.014.154-.02.213-.072a.748.748 0 01.484-.175c.384.002.66.294.66.717 0 .418-.27.707-.649.707-.253 0-.467-.132-.556-.342-.04-.097-.124-.182-.23-.182h-.39c-.112 0-.204.092-.183.203.111.587.649.989 1.36.989z" fill="url(#paint12_linear)"/><path d="M85.507 37.894c0 .11.09.2.2.2h1.432c.11 0 .2.09.2.2v.307c0 .11.09.2.2.2h.371a.2.2 0 00.2-.2v-.307c0-.11.09-.2.2-.2h.073a.2.2 0 00.2-.2v-.282a.2.2 0 00-.2-.2h-.073a.2.2 0 01-.2-.2v-2.234a.2.2 0 00-.2-.2h-.697a.2.2 0 00-.17.096l-1.507 2.502a.2.2 0 00-.029.103v.415zm1.847-.682a.2.2 0 01-.2.2h-.81a.025.025 0 01-.02-.037l.994-1.66a.019.019 0 01.036.009v1.488z" fill="url(#paint13_linear)"/><path d="M1.744 34.978a.2.2 0 00-.2-.2h-.497a.2.2 0 00-.111.033l-.805.538a.2.2 0 00-.09.166v.276a.2.2 0 00.31.167l.56-.37a.017.017 0 01.027.014v2.999c0 .11.09.2.2.2h.406a.2.2 0 00.2-.2v-3.623z" fill="url(#paint14_linear)"/><path d="M5.259 38.89c.96 0 1.539-.77 1.54-2.097.002-1.316-.585-2.07-1.54-2.07-.958 0-1.54.752-1.541 2.07-.004 1.322.58 2.094 1.54 2.096zm0-.706c-.438 0-.721-.463-.72-1.39.003-.914.284-1.374.72-1.374.434 0 .717.46.717 1.373.002.928-.281 1.391-.717 1.391z" fill="url(#paint15_linear)"/><path d="M8.87 38.89c.96 0 1.54-.77 1.541-2.097.002-1.316-.585-2.07-1.54-2.07-.958 0-1.54.752-1.541 2.07-.004 1.322.58 2.094 1.54 2.096zm0-.706c-.437 0-.72-.463-.718-1.39.001-.914.283-1.374.719-1.374.434 0 .717.46.717 1.373.002.928-.281 1.391-.717 1.391z" fill="url(#paint16_linear)"/><path d="M10.987 38.6c0 .111.09.2.2.2h2.32a.2.2 0 00.2-.2v-.294a.2.2 0 00-.2-.2h-1.383a.02.02 0 01-.014-.034l.552-.57c.784-.754.994-1.131.994-1.589 0-.697-.54-1.19-1.358-1.19-.731 0-1.253.42-1.337 1.095-.013.11.078.2.188.2h.365c.111 0 .197-.092.224-.2.066-.265.271-.421.555-.421.335 0 .585.22.585.573 0 .32-.187.54-.533.892l-1.298 1.267a.2.2 0 00-.06.143v.329z" fill="url(#paint17_linear)"/><path d="M14.763 38.852c.238 0 .445-.21.447-.471-.002-.258-.209-.468-.447-.468a.458.458 0 00-.448.468.459.459 0 00.448.471z" fill="url(#paint18_linear)"/><path d="M17.123 38.856c.861 0 1.48-.485 1.482-1.138a1.014 1.014 0 00-.814-.991.017.017 0 01-.014-.017c0-.007.006-.014.014-.016.391-.092.67-.452.672-.889-.002-.623-.568-1.082-1.34-1.082-.773 0-1.339.46-1.337 1.082-.002.435.273.798.672.889a.017.017 0 01.013.016.017.017 0 01-.013.017c-.46.086-.816.494-.814.992-.002.652.619 1.137 1.48 1.137zm0-.625c-.383 0-.64-.24-.64-.58 0-.347.27-.599.64-.599s.641.252.641.6c0 .341-.259.58-.64.58zm0-1.797c-.322 0-.551-.222-.551-.54 0-.315.225-.53.552-.53.324 0 .55.217.55.53 0 .318-.23.54-.55.54z" fill="url(#paint19_linear)"/><path d="M20.633 38.856c.85.004 1.429-.584 1.427-1.403.002-.754-.497-1.298-1.174-1.298-.415 0-.783.208-.957.559a.016.016 0 01-.014.008.016.016 0 01-.016-.016c.007-.774.268-1.255.762-1.255.235 0 .417.11.512.299.042.084.12.151.213.151h.41c.12 0 .214-.105.182-.22-.155-.553-.642-.958-1.317-.958-.943 0-1.548.805-1.552 2.157-.002 1.473.74 1.972 1.524 1.976zm-.004-.668c-.372 0-.648-.316-.648-.71.002-.39.283-.708.654-.708.372 0 .644.308.643.707.001.403-.276.711-.649.711z" fill="url(#paint20_linear)"/><path d="M22.92 38.514a.2.2 0 00.18.287h.39a.2.2 0 00.18-.114l1.51-3.163a.2.2 0 00.02-.086v-.46a.2.2 0 00-.2-.2h-2.278a.2.2 0 00-.2.2v.295c0 .11.09.2.2.2h1.62a.022.022 0 01.02.032l-1.442 3.01z" fill="url(#paint21_linear)"/><path d="M25.568 38.852c.238 0 .445-.21.447-.471-.002-.258-.209-.468-.447-.468a.458.458 0 00-.448.468.459.459 0 00.448.471z" fill="url(#paint22_linear)"/><path d="M28.022 38.856c.85 0 1.427-.584 1.425-1.397.002-.77-.509-1.324-1.196-1.324-.332 0-.618.145-.754.34a.014.014 0 01-.025-.009l.08-.812a.2.2 0 01.198-.18h1.286a.2.2 0 00.2-.2v-.296a.2.2 0 00-.2-.2h-1.948a.2.2 0 00-.2.183l-.15 1.758a.2.2 0 00.163.214l.413.078c.077.014.154-.02.213-.072a.748.748 0 01.484-.175c.383.002.66.294.66.717 0 .418-.271.707-.65.707-.252 0-.467-.132-.555-.342-.041-.097-.125-.182-.23-.182h-.39c-.113 0-.205.092-.184.203.112.587.65.989 1.36.989z" fill="url(#paint23_linear)"/><path d="M29.952 37.894c0 .11.09.2.2.2h1.431c.11 0 .2.09.2.2v.307c0 .11.09.2.2.2h.372a.2.2 0 00.2-.2v-.307c0-.11.089-.2.2-.2h.073a.2.2 0 00.2-.2v-.282a.2.2 0 00-.2-.2h-.074a.2.2 0 01-.2-.2v-2.234a.2.2 0 00-.2-.2h-.696a.2.2 0 00-.172.096l-1.506 2.502a.2.2 0 00-.028.103v.415zm1.846-.682a.2.2 0 01-.2.2h-.81a.025.025 0 01-.02-.037l.995-1.66a.019.019 0 01.035.009v1.488z" fill="url(#paint24_linear)"/><path d="M72.35 10.678c14.237 14.238 14.237 37.322 0 51.56-14.238 14.238-37.323 14.238-51.56 0C6.552 48 6.552 24.916 20.79 10.678c14.237-14.237 37.322-14.237 51.56 0z" fill="#5381F6"/><path d="M64.984 18.043c10.17 10.17 10.17 26.659 0 36.829-10.17 10.17-26.659 10.17-36.829 0-10.17-10.17-10.17-26.659 0-36.829 10.17-10.17 26.659-10.17 36.829 0z" fill="url(#paint25_linear)"/><mask id="a" maskUnits="userSpaceOnUse" x="20" y="10" width="53" height="53"><path d="M64.984 18.043c10.17 10.17 10.17 26.659 0 36.829-10.17 10.17-26.659 10.17-36.829 0-10.17-10.17-10.17-26.659 0-36.829 10.17-10.17 26.659-10.17 36.829 0z" fill="url(#paint26_linear)"/></mask><g mask="url(#a)"><path d="M-26.827 32.563a.5.5 0 00-.5-.5h-1.156a.5.5 0 00-.26.073l-1.879 1.147a.5.5 0 00-.24.426v.468a.5.5 0 00.76.428l1.301-.787a.041.041 0 01.063.035v6.427a.5.5 0 00.5.5h.911a.5.5 0 00.5-.5v-7.718z" fill="url(#paint27_linear)"/><path d="M-18.257 40.971c2.273 0 3.646-1.668 3.65-4.541.005-2.852-1.386-4.487-3.65-4.487-2.269 0-3.646 1.63-3.65 4.487-.01 2.864 1.372 4.537 3.65 4.541zm0-1.528c-1.037 0-1.708-1.004-1.704-3.013.005-1.98.671-2.976 1.704-2.976 1.028 0 1.7.996 1.7 2.976.004 2.009-.667 3.013-1.7 3.013z" fill="url(#paint28_linear)"/><path d="M-9.7 40.971c2.274 0 3.646-1.668 3.65-4.541.005-2.852-1.385-4.487-3.65-4.487-2.268 0-3.646 1.63-3.65 4.487-.009 2.864 1.373 4.537 3.65 4.541zm0-1.528c-1.037 0-1.708-1.004-1.703-3.013.004-1.98.67-2.976 1.703-2.976 1.029 0 1.7.996 1.7 2.976.004 2.009-.667 3.013-1.7 3.013z" fill="url(#paint29_linear)"/><path d="M-1.142 40.971c2.273 0 3.646-1.668 3.65-4.541.005-2.852-1.386-4.487-3.65-4.487-2.269 0-3.646 1.63-3.65 4.487-.01 2.864 1.372 4.537 3.65 4.541zm0-1.528c-1.037 0-1.708-1.004-1.704-3.013.005-1.98.671-2.976 1.704-2.976 1.028 0 1.7.996 1.7 2.976.004 2.009-.667 3.013-1.7 3.013z" fill="url(#paint30_linear)"/><path d="M10.292 40.971c2.273 0 3.646-1.668 3.65-4.541.005-2.852-1.385-4.487-3.65-4.487-2.269 0-3.646 1.63-3.65 4.487-.009 2.864 1.373 4.537 3.65 4.541zm0-1.528c-1.037 0-1.708-1.004-1.704-3.013.005-1.98.671-2.976 1.704-2.976 1.029 0 1.7.996 1.7 2.976.004 2.009-.667 3.013-1.7 3.013z" fill="url(#paint31_linear)"/><path d="M18.85 40.971c2.273 0 3.646-1.668 3.65-4.541.005-2.852-1.386-4.487-3.65-4.487-2.269 0-3.646 1.63-3.65 4.487-.01 2.864 1.372 4.537 3.65 4.541zm0-1.528c-1.038 0-1.708-1.004-1.704-3.013.004-1.98.67-2.976 1.704-2.976 1.028 0 1.7.996 1.7 2.976.004 2.009-.667 3.013-1.7 3.013z" fill="url(#paint32_linear)"/><path d="M23.863 40.28a.5.5 0 00.5.5h5.444a.5.5 0 00.5-.5v-.507a.5.5 0 00-.5-.5h-3.254a.042.042 0 01-.029-.072l1.307-1.235c1.858-1.634 2.357-2.452 2.357-3.443 0-1.511-1.28-2.58-3.218-2.58-1.707 0-2.932.885-3.158 2.308-.043.273.186.497.461.497h.813c.277 0 .49-.231.575-.495.174-.536.65-.85 1.296-.85.795 0 1.386.477 1.386 1.243 0 .694-.441 1.17-1.262 1.933l-3.051 2.724a.5.5 0 00-.167.373v.604z" fill="url(#paint33_linear)"/><path d="M32.809 40.89c.565 0 1.055-.455 1.06-1.021-.005-.558-.495-1.013-1.06-1.013-.583 0-1.064.455-1.06 1.013-.004.566.477 1.021 1.06 1.021z" fill="url(#paint34_linear)"/><path d="M38.403 40.899c2.039 0 3.504-1.052 3.508-2.465-.004-1.08-.857-1.962-1.93-2.148a.036.036 0 01-.03-.036c0-.017.013-.031.03-.035.929-.197 1.59-.978 1.595-1.926-.004-1.35-1.346-2.346-3.173-2.346-1.832 0-3.174.996-3.17 2.346-.004.944.65 1.729 1.596 1.926a.036.036 0 01.029.035.036.036 0 01-.03.035c-1.09.186-1.935 1.07-1.93 2.15-.005 1.412 1.465 2.464 3.505 2.464zm0-1.354c-.91 0-1.519-.519-1.519-1.255 0-.754.64-1.299 1.519-1.299.873 0 1.518.545 1.518 1.299 0 .74-.614 1.255-1.518 1.255zm0-3.894c-.764 0-1.307-.481-1.307-1.17 0-.682.534-1.15 1.307-1.15.767 0 1.306.472 1.306 1.15 0 .689-.547 1.17-1.306 1.17z" fill="url(#paint35_linear)"/><path d="M46.717 40.899c2.013.008 3.386-1.264 3.381-3.04.005-1.634-1.178-2.813-2.78-2.813-.985 0-1.856.452-2.267 1.21a.04.04 0 01-.034.02.039.039 0 01-.039-.039c.018-1.675.636-2.715 1.805-2.715.541 0 .963.223 1.192.61.118.2.309.365.54.365h.924c.3 0 .537-.267.44-.552-.392-1.16-1.53-2.002-3.096-2.002-2.233 0-3.668 1.745-3.676 4.674-.005 3.192 1.752 4.273 3.61 4.282zm-.009-1.447a1.513 1.513 0 01-1.536-1.537 1.532 1.532 0 011.55-1.536c.882 0 1.527.668 1.523 1.532.004.872-.654 1.54-1.537 1.54z" fill="url(#paint36_linear)"/><path d="M52.195 40.047a.5.5 0 00.443.733h.843a.5.5 0 00.443-.27l3.555-6.81a.5.5 0 00.057-.232v-.906a.5.5 0 00-.5-.5h-5.343a.5.5 0 00-.5.5v.507a.5.5 0 00.5.5h3.818a.048.048 0 01.042.07l-3.358 6.408z" fill="url(#paint37_linear)"/><path d="M58.409 40.89c.565 0 1.055-.455 1.059-1.021-.004-.558-.494-1.013-1.06-1.013-.582 0-1.063.455-1.059 1.013-.004.566.477 1.021 1.06 1.021z" fill="url(#paint38_linear)"/><path d="M64.223 40.899c2.013 0 3.381-1.264 3.377-3.026.004-1.669-1.205-2.87-2.834-2.87-.1 0-.198.006-.294.015-.486.048-1.42-.535-1.367-1.02a.48.48 0 01.476-.429h3.02a.5.5 0 00.5-.5v-.507a.5.5 0 00-.5-.5h-4.57a.5.5 0 00-.499.454L61.19 36.2a.5.5 0 00.413.54l.946.163c.183.031.365-.047.51-.162a1.877 1.877 0 011.139-.374c.909.004 1.562.638 1.562 1.553 0 .907-.64 1.533-1.536 1.533-.576 0-1.069-.265-1.292-.689-.123-.233-.33-.448-.593-.448h-.874c-.28 0-.512.234-.447.507.294 1.236 1.552 2.077 3.206 2.077z" fill="url(#paint39_linear)"/><path d="M68.796 38.747a.5.5 0 00.5.5h3.339a.5.5 0 01.5.5v.533a.5.5 0 00.5.5h.827a.5.5 0 00.5-.5v-.533a.5.5 0 01.5-.5h.121a.5.5 0 00.5-.5v-.477a.5.5 0 00-.5-.5h-.12a.5.5 0 01-.5-.5v-4.708a.5.5 0 00-.5-.5h-1.624a.5.5 0 00-.417.226l-3.544 5.383a.5.5 0 00-.082.275v.801zm4.374-1.477a.5.5 0 01-.5.5h-1.897a.052.052 0 01-.044-.08l2.357-3.598a.046.046 0 01.084.025v3.153z" fill="url(#paint40_linear)"/></g><path d="M66.884 64.773a5.556 5.556 0 117.857-7.857l21.606 21.606a5.555 5.555 0 11-7.857 7.857L66.884 64.773z" fill="#5381F6"/><path d="M92.624 37.176c1.044 0 1.64-.575 1.64-1.407 0-.803-.583-1.427-1.64-1.427h-1.513a.2.2 0 00-.2.2v1.757a.2.2 0 01-.2.2h-.268a.2.2 0 00-.2.2v.277c0 .11.09.2.2.2h.3a.169.169 0 010 .337h-.3a.2.2 0 00-.2.2v.277c0 .11.09.2.2.2h.268c.11 0 .2.09.2.2v.297c0 .11.09.2.2.2h.421a.2.2 0 00.2-.2v-.297c0-.11.09-.2.2-.2h.597a.2.2 0 00.2-.2v-.277a.2.2 0 00-.2-.2H91.9a.169.169 0 110-.337h.723zm-.692-.677a.2.2 0 01-.2-.2v-1.074c0-.11.09-.2.2-.2h.692c.553 0 .82.324.817.75.002.436-.26.724-.834.724h-.675z" fill="url(#paint41_linear)"/><defs><linearGradient id="paint0_linear" x1="66.014" y1="34.723" x2="66.014" y2="38.889" gradientUnits="userSpaceOnUse"><stop stop-color="#FB5A80"/><stop offset="1" stop-color="#F23965"/></linearGradient><linearGradient id="paint1_linear" x1="66.014" y1="34.723" x2="66.014" y2="38.889" gradientUnits="userSpaceOnUse"><stop stop-color="#FB5A80"/><stop offset="1" stop-color="#F23965"/></linearGradient><linearGradient id="paint2_linear" x1="66.014" y1="34.723" x2="66.014" y2="38.889" gradientUnits="userSpaceOnUse"><stop stop-color="#FB5A80"/><stop offset="1" stop-color="#F23965"/></linearGradient><linearGradient id="paint3_linear" x1="66.014" y1="34.723" x2="66.014" y2="38.889" gradientUnits="userSpaceOnUse"><stop stop-color="#FB5A80"/><stop offset="1" stop-color="#F23965"/></linearGradient><linearGradient id="paint4_linear" x1="66.014" y1="34.723" x2="66.014" y2="38.889" gradientUnits="userSpaceOnUse"><stop stop-color="#FB5A80"/><stop offset="1" stop-color="#F23965"/></linearGradient><linearGradient id="paint5_linear" x1="66.014" y1="34.723" x2="66.014" y2="38.889" gradientUnits="userSpaceOnUse"><stop stop-color="#FB5A80"/><stop offset="1" stop-color="#F23965"/></linearGradient><linearGradient id="paint6_linear" x1="66.014" y1="34.723" x2="66.014" y2="38.889" gradientUnits="userSpaceOnUse"><stop stop-color="#FB5A80"/><stop offset="1" stop-color="#F23965"/></linearGradient><linearGradient id="paint7_linear" x1="66.014" y1="34.723" x2="66.014" y2="38.889" gradientUnits="userSpaceOnUse"><stop stop-color="#FB5A80"/><stop offset="1" stop-color="#F23965"/></linearGradient><linearGradient id="paint8_linear" x1="66.014" y1="34.723" x2="66.014" y2="38.889" gradientUnits="userSpaceOnUse"><stop stop-color="#FB5A80"/><stop offset="1" stop-color="#F23965"/></linearGradient><linearGradient id="paint9_linear" x1="66.014" y1="34.723" x2="66.014" y2="38.889" gradientUnits="userSpaceOnUse"><stop stop-color="#FB5A80"/><stop offset="1" stop-color="#F23965"/></linearGradient><linearGradient id="paint10_linear" x1="66.014" y1="34.723" x2="66.014" y2="38.889" gradientUnits="userSpaceOnUse"><stop stop-color="#FB5A80"/><stop offset="1" stop-color="#F23965"/></linearGradient><linearGradient id="paint11_linear" x1="66.014" y1="34.723" x2="66.014" y2="38.889" gradientUnits="userSpaceOnUse"><stop stop-color="#FB5A80"/><stop offset="1" stop-color="#F23965"/></linearGradient><linearGradient id="paint12_linear" x1="66.014" y1="34.723" x2="66.014" y2="38.889" gradientUnits="userSpaceOnUse"><stop stop-color="#FB5A80"/><stop offset="1" stop-color="#F23965"/></linearGradient><linearGradient id="paint13_linear" x1="66.014" y1="34.723" x2="66.014" y2="38.889" gradientUnits="userSpaceOnUse"><stop stop-color="#FB5A80"/><stop offset="1" stop-color="#F23965"/></linearGradient><linearGradient id="paint14_linear" x1="16.535" y1="34.723" x2="16.535" y2="38.889" gradientUnits="userSpaceOnUse"><stop stop-color="#FB5A80"/><stop offset="1" stop-color="#F23965"/></linearGradient><linearGradient id="paint15_linear" x1="16.535" y1="34.723" x2="16.535" y2="38.889" gradientUnits="userSpaceOnUse"><stop stop-color="#FB5A80"/><stop offset="1" stop-color="#F23965"/></linearGradient><linearGradient id="paint16_linear" x1="16.535" y1="34.723" x2="16.535" y2="38.889" gradientUnits="userSpaceOnUse"><stop stop-color="#FB5A80"/><stop offset="1" stop-color="#F23965"/></linearGradient><linearGradient id="paint17_linear" x1="16.535" y1="34.723" x2="16.535" y2="38.889" gradientUnits="userSpaceOnUse"><stop stop-color="#FB5A80"/><stop offset="1" stop-color="#F23965"/></linearGradient><linearGradient id="paint18_linear" x1="16.535" y1="34.723" x2="16.535" y2="38.889" gradientUnits="userSpaceOnUse"><stop stop-color="#FB5A80"/><stop offset="1" stop-color="#F23965"/></linearGradient><linearGradient id="paint19_linear" x1="16.535" y1="34.723" x2="16.535" y2="38.889" gradientUnits="userSpaceOnUse"><stop stop-color="#FB5A80"/><stop offset="1" stop-color="#F23965"/></linearGradient><linearGradient id="paint20_linear" x1="16.535" y1="34.723" x2="16.535" y2="38.889" gradientUnits="userSpaceOnUse"><stop stop-color="#FB5A80"/><stop offset="1" stop-color="#F23965"/></linearGradient><linearGradient id="paint21_linear" x1="16.535" y1="34.723" x2="16.535" y2="38.889" gradientUnits="userSpaceOnUse"><stop stop-color="#FB5A80"/><stop offset="1" stop-color="#F23965"/></linearGradient><linearGradient id="paint22_linear" x1="16.535" y1="34.723" x2="16.535" y2="38.889" gradientUnits="userSpaceOnUse"><stop stop-color="#FB5A80"/><stop offset="1" stop-color="#F23965"/></linearGradient><linearGradient id="paint23_linear" x1="16.535" y1="34.723" x2="16.535" y2="38.889" gradientUnits="userSpaceOnUse"><stop stop-color="#FB5A80"/><stop offset="1" stop-color="#F23965"/></linearGradient><linearGradient id="paint24_linear" x1="16.535" y1="34.723" x2="16.535" y2="38.889" gradientUnits="userSpaceOnUse"><stop stop-color="#FB5A80"/><stop offset="1" stop-color="#F23965"/></linearGradient><linearGradient id="paint25_linear" x1="28.155" y1="18.043" x2="64.984" y2="54.872" gradientUnits="userSpaceOnUse"><stop stop-color="#EDF0F8"/><stop offset="1" stop-color="#D7DEEF"/></linearGradient><linearGradient id="paint26_linear" x1="28.155" y1="18.043" x2="64.984" y2="54.872" gradientUnits="userSpaceOnUse"><stop stop-color="#EDF0F8"/><stop offset="1" stop-color="#D7DEEF"/></linearGradient><linearGradient id="paint27_linear" x1="22.611" y1="31.943" x2="22.611" y2="40.971" gradientUnits="userSpaceOnUse"><stop stop-color="#FB5A80"/><stop offset="1" stop-color="#F23965"/></linearGradient><linearGradient id="paint28_linear" x1="22.611" y1="31.943" x2="22.611" y2="40.971" gradientUnits="userSpaceOnUse"><stop stop-color="#FB5A80"/><stop offset="1" stop-color="#F23965"/></linearGradient><linearGradient id="paint29_linear" x1="22.611" y1="31.943" x2="22.611" y2="40.971" gradientUnits="userSpaceOnUse"><stop stop-color="#FB5A80"/><stop offset="1" stop-color="#F23965"/></linearGradient><linearGradient id="paint30_linear" x1="22.611" y1="31.943" x2="22.611" y2="40.971" gradientUnits="userSpaceOnUse"><stop stop-color="#FB5A80"/><stop offset="1" stop-color="#F23965"/></linearGradient><linearGradient id="paint31_linear" x1="22.611" y1="31.943" x2="22.611" y2="40.971" gradientUnits="userSpaceOnUse"><stop stop-color="#FB5A80"/><stop offset="1" stop-color="#F23965"/></linearGradient><linearGradient id="paint32_linear" x1="22.611" y1="31.943" x2="22.611" y2="40.971" gradientUnits="userSpaceOnUse"><stop stop-color="#FB5A80"/><stop offset="1" stop-color="#F23965"/></linearGradient><linearGradient id="paint33_linear" x1="22.611" y1="31.943" x2="22.611" y2="40.971" gradientUnits="userSpaceOnUse"><stop stop-color="#FB5A80"/><stop offset="1" stop-color="#F23965"/></linearGradient><linearGradient id="paint34_linear" x1="22.611" y1="31.943" x2="22.611" y2="40.971" gradientUnits="userSpaceOnUse"><stop stop-color="#FB5A80"/><stop offset="1" stop-color="#F23965"/></linearGradient><linearGradient id="paint35_linear" x1="22.611" y1="31.943" x2="22.611" y2="40.971" gradientUnits="userSpaceOnUse"><stop stop-color="#FB5A80"/><stop offset="1" stop-color="#F23965"/></linearGradient><linearGradient id="paint36_linear" x1="22.611" y1="31.943" x2="22.611" y2="40.971" gradientUnits="userSpaceOnUse"><stop stop-color="#FB5A80"/><stop offset="1" stop-color="#F23965"/></linearGradient><linearGradient id="paint37_linear" x1="22.611" y1="31.943" x2="22.611" y2="40.971" gradientUnits="userSpaceOnUse"><stop stop-color="#FB5A80"/><stop offset="1" stop-color="#F23965"/></linearGradient><linearGradient id="paint38_linear" x1="22.611" y1="31.943" x2="22.611" y2="40.971" gradientUnits="userSpaceOnUse"><stop stop-color="#FB5A80"/><stop offset="1" stop-color="#F23965"/></linearGradient><linearGradient id="paint39_linear" x1="22.611" y1="31.943" x2="22.611" y2="40.971" gradientUnits="userSpaceOnUse"><stop stop-color="#FB5A80"/><stop offset="1" stop-color="#F23965"/></linearGradient><linearGradient id="paint40_linear" x1="22.611" y1="31.943" x2="22.611" y2="40.971" gradientUnits="userSpaceOnUse"><stop stop-color="#FB5A80"/><stop offset="1" stop-color="#F23965"/></linearGradient><linearGradient id="paint41_linear" x1="92.254" y1="34.342" x2="92.254" y2="38.887" gradientUnits="userSpaceOnUse"><stop stop-color="#FB5A80"/><stop offset="1" stop-color="#F23965"/></linearGradient></defs></svg>